<svg width="82" height="31" viewBox="0 0 82 31" fill="none" xmlns="http://www.w3.org/2000/svg">
<path fill-rule="evenodd" clip-rule="evenodd" d="M8.8585 22.7497C9.20253 22.7447 9.5588 22.852 9.69131 23.0492C9.78837 23.1935 9.80352 23.3356 9.70156 23.4868C9.68067 23.5177 9.66113 23.5512 9.63237 23.5738C9.5079 23.6715 9.35931 23.7492 9.17624 23.7887C9.13439 23.7922 9.09253 23.7956 9.05068 23.799C8.61346 23.8685 8.11585 23.6548 8.06153 23.3102C8.04735 23.2201 8.08449 23.1552 8.11023 23.1054C8.19998 22.932 8.41423 22.8226 8.62783 22.7753C8.70471 22.7668 8.78159 22.7583 8.85847 22.7497L8.8585 22.7497ZM16.7151 22.046C16.5836 22.0477 16.452 22.0494 16.3205 22.0511C16.0036 22.0639 15.6867 22.0766 15.3698 22.0895C15.1316 22.1056 14.8932 22.1219 14.6549 22.1381C14.5686 22.1492 14.4824 22.1603 14.3961 22.1714C14.3431 22.1748 14.2902 22.1782 14.2372 22.1816C14.05 22.2156 13.8527 22.2255 13.6632 22.2635C13.3941 22.3174 13.1181 22.376 12.8842 22.4631C12.6022 22.5682 12.3912 22.6838 12.2461 22.9238C12.1789 23.0349 12.1639 23.2185 12.2256 23.3512C12.4472 23.827 13.092 24.0891 13.6222 24.2699C13.9444 24.3798 14.3044 24.4486 14.6779 24.5156C14.8175 24.5407 14.9463 24.5375 15.0828 24.5591C15.1862 24.5634 15.2895 24.5676 15.3929 24.5719C15.4313 24.5719 15.4698 24.5719 15.5082 24.5719C15.5977 24.5856 15.7905 24.583 15.8772 24.5693C15.9797 24.5659 16.0822 24.5625 16.1847 24.5591C16.3607 24.5313 16.5537 24.5235 16.7177 24.4875C16.844 24.4598 16.9526 24.4571 17.0739 24.426C17.3439 24.3568 17.613 24.2814 17.8529 24.1855C17.8768 24.1795 17.9007 24.1735 17.9247 24.1675C18.3231 23.9986 18.6891 23.8048 19.0214 23.5713C19.1628 23.4719 19.2858 23.3502 19.4186 23.2437C19.6984 23.0194 19.9133 22.7297 20.1285 22.4401C20.1629 22.3938 20.3143 22.197 20.3181 22.1458C20.3147 22.1407 20.3112 22.1356 20.3078 22.1305C20.0832 22.1177 19.8585 22.1049 19.6339 22.0921C19.5716 22.0904 19.5092 22.0887 19.4468 22.087C19.3443 22.0853 19.2418 22.0836 19.1393 22.0819C18.8916 22.0733 18.6439 22.0648 18.3962 22.0563C18.2108 22.0537 18.0254 22.0512 17.8401 22.0486C17.4652 22.0477 17.0901 22.0469 16.7152 22.046L16.7151 22.046ZM41.5227 22.0255C41.3681 22.0281 41.2135 22.0306 41.0589 22.0331C40.9778 22.0349 40.8966 22.0366 40.8154 22.0383C40.7335 22.04 40.6515 22.0417 40.5695 22.0434C40.3756 22.051 40.1817 22.0587 39.9878 22.0664C39.7148 22.1097 39.4113 22.0833 39.1473 22.1253C39.0695 22.1295 38.9918 22.1338 38.9141 22.1381C38.7198 22.171 38.4966 22.1774 38.3068 22.2098C38.2521 22.214 38.1974 22.2183 38.1428 22.2225C38.0065 22.2479 37.8446 22.2669 37.7123 22.2942C37.6713 22.2985 37.6303 22.3027 37.5893 22.307C37.4194 22.344 37.2325 22.3814 37.0691 22.4222C37.0375 22.4273 37.0059 22.4324 36.9743 22.4375C36.8569 22.4733 36.7255 22.5145 36.613 22.5501C36.256 22.6633 35.8375 22.8305 35.6598 23.1183C35.5666 23.2691 35.5063 23.4482 35.5829 23.6685C35.6366 23.8228 35.7324 23.948 35.8238 24.0652C35.9147 24.1818 36.0168 24.2951 36.139 24.3799C36.2073 24.4274 36.2863 24.4493 36.367 24.4849C36.5197 24.5522 36.6894 24.6141 36.8488 24.6794C36.9227 24.7096 36.9894 24.716 37.0666 24.7408C37.3936 24.8458 37.748 24.9124 38.1198 24.9813C38.2513 24.9959 38.3829 25.0104 38.5144 25.0249C38.5631 25.0275 38.6118 25.03 38.6605 25.0325C38.739 25.0342 38.8176 25.0359 38.8962 25.0377C38.9976 25.0533 39.1744 25.0536 39.2755 25.0377C39.3344 25.0368 39.3933 25.0359 39.4523 25.0351C39.5103 25.0325 39.5685 25.03 39.6265 25.0274C39.7119 25.0172 39.7973 25.0069 39.8828 24.9967C39.9511 24.9907 40.0195 24.9847 40.0878 24.9788C40.3408 24.9285 40.6075 24.8983 40.8386 24.8278C40.8762 24.8209 40.9138 24.8141 40.9513 24.8073C41.3725 24.6786 41.775 24.5538 42.1506 24.3825C42.4664 24.2384 42.7487 24.0613 43.0295 23.886C43.3085 23.7119 43.628 23.4585 43.8265 23.2053C43.9285 23.075 44.0497 22.9508 44.116 22.7856C44.1733 22.6428 44.2679 22.4522 44.2134 22.2507C44.2066 22.2174 44.1997 22.1842 44.1929 22.1509C44.1834 22.1313 44.1608 22.0891 44.1391 22.0818C44.0913 22.0792 44.0434 22.0767 43.9956 22.0741C43.8974 22.0673 43.7991 22.0605 43.7009 22.0536C43.6471 22.0528 43.5933 22.0519 43.5395 22.0511C43.3131 22.0468 43.0867 22.0425 42.8604 22.0383C42.7434 22.0357 42.6263 22.0331 42.5093 22.0306C42.3983 22.0289 42.2872 22.0272 42.1762 22.0255C41.9584 22.0255 41.7406 22.0255 41.5228 22.0255H41.5227ZM67.6935 21.4138C67.5218 21.4249 67.3501 21.436 67.1784 21.4471C67.1207 21.4567 67.0425 21.4319 66.9939 21.4522C66.9619 21.4656 66.8568 21.6721 66.8299 21.7158C66.721 21.8928 66.6172 22.0745 66.5327 22.2763C66.511 22.3281 66.4722 22.3889 66.4558 22.4452C66.4336 22.5214 66.3455 22.776 66.4328 22.8444C66.4529 22.8602 66.4972 22.884 66.5378 22.8751C66.595 22.8627 66.6354 22.8117 66.6762 22.7804C66.7394 22.7318 66.8026 22.6832 66.8658 22.6346C67.1645 22.3807 67.4569 22.1109 67.6986 21.8003C67.757 21.7252 67.8159 21.6515 67.8729 21.5725C67.8965 21.5397 67.9438 21.504 67.9446 21.4522C67.9412 21.4463 67.9378 21.4403 67.9343 21.4343C67.8662 21.417 67.7777 21.414 67.6935 21.4138H67.6935ZM42.6117 20.3057C42.525 20.3509 42.4226 20.3588 42.3222 20.3902C42.1658 20.439 42.0012 20.4729 41.8302 20.5156C41.5342 20.5895 41.2091 20.6409 40.9025 20.7126C40.8582 20.7177 40.8137 20.7228 40.7693 20.728C40.6495 20.7519 40.5037 20.7746 40.3824 20.7996C40.326 20.8056 40.2696 20.8116 40.2132 20.8175C39.9761 20.8668 39.7072 20.8817 39.465 20.9276C39.4069 20.9318 39.3488 20.9361 39.2908 20.9404C39.1035 20.9718 38.8829 20.9733 38.6911 21.0069C38.6047 21.0221 38.4583 20.9848 38.481 21.1016C38.487 21.1076 38.493 21.1135 38.4989 21.1195C38.6655 21.1195 38.8321 21.1195 38.9986 21.1195C39.0447 21.1204 39.0909 21.1212 39.137 21.1221C39.2233 21.1246 39.3095 21.1272 39.3958 21.1298C39.4855 21.134 39.5752 21.1383 39.6649 21.1425C39.7349 21.1443 39.805 21.146 39.875 21.1477C39.922 21.1494 39.969 21.151 40.016 21.1528C40.1364 21.163 40.2568 21.1732 40.3772 21.1835C40.4687 21.1877 40.5601 21.192 40.6514 21.1963C40.8755 21.2318 41.1303 21.2344 41.351 21.2705C41.4159 21.2747 41.4808 21.279 41.5457 21.2833C41.7156 21.3121 41.916 21.3257 42.0839 21.355C42.1496 21.3609 42.2154 21.3669 42.2812 21.3729C42.3658 21.3902 42.4561 21.3917 42.5528 21.4087C42.7994 21.4521 43.0701 21.4803 43.3139 21.5264C43.3549 21.5298 43.3959 21.5332 43.4369 21.5366C43.5368 21.5547 43.6395 21.5626 43.7495 21.5827C43.7795 21.5881 43.826 21.6082 43.8597 21.5955C43.8928 21.5763 43.854 21.5103 43.8418 21.4931C43.7724 21.3961 43.7091 21.2992 43.6368 21.2065C43.5718 21.1357 43.5069 21.0649 43.442 20.9941C43.3611 20.8938 43.263 20.7934 43.1627 20.7126C43.081 20.6468 43.0118 20.5669 42.9269 20.5027C42.8612 20.453 42.7093 20.3065 42.6117 20.3057V20.3057ZM68.3367 20.0651C68.3085 20.0737 68.2803 20.0822 68.2521 20.0907C68.1995 20.1156 68.1248 20.1477 68.0753 20.1803C67.969 20.2505 67.8607 20.3171 67.7601 20.3927C67.7157 20.4261 67.6796 20.4707 67.6371 20.5053C67.6095 20.5279 67.4647 20.6786 67.4936 20.7228C67.5081 20.7449 67.5627 20.7382 67.5987 20.7382C67.6986 20.7373 67.7986 20.7365 67.8985 20.7356C67.9776 20.7352 68.3093 20.7344 68.3469 20.7075C68.3783 20.685 68.3738 20.6325 68.3854 20.5898C68.4192 20.4654 68.4219 20.2879 68.388 20.1598C68.3769 20.1181 68.3803 20.0899 68.3546 20.0651C68.3486 20.0651 68.3427 20.0651 68.3367 20.0651ZM27.5571 20.0344C27.24 20.1942 27.0148 20.4341 26.7499 20.6435C26.6952 20.6964 26.6406 20.7493 26.5859 20.8022C26.4682 20.8965 26.3564 21.0105 26.2554 21.1221C26.1868 21.1977 26.1069 21.2619 26.0427 21.3422C25.9407 21.4696 25.8076 21.5735 25.7096 21.7056C25.593 21.8627 25.4426 22.0081 25.3611 22.1969C25.3473 22.2287 25.2674 22.3789 25.3303 22.4093C25.359 22.4244 25.4802 22.3428 25.5045 22.3249C25.657 22.2126 25.8108 22.109 25.9453 21.9794C25.9863 21.9444 26.0273 21.9095 26.0683 21.8745C26.1289 21.8173 26.1896 21.7602 26.2502 21.703C26.3669 21.6085 26.469 21.477 26.5757 21.3703C26.8179 21.1281 27.0515 20.8674 27.2573 20.5898C27.3077 20.5241 27.3581 20.4584 27.4085 20.3927C27.4472 20.335 27.4766 20.2771 27.5161 20.2187C27.544 20.1775 27.6077 20.1101 27.5956 20.0447C27.5837 20.0385 27.5763 20.0348 27.5571 20.0344H27.5571ZM53.2231 19.8988C52.9811 20.0392 52.7914 20.2134 52.5927 20.3953C52.5543 20.4345 52.5158 20.4737 52.4774 20.513C52.4064 20.5702 52.3348 20.6417 52.2775 20.7126C52.1971 20.8123 52.092 20.8932 52.011 20.9941C51.929 21.082 51.847 21.1699 51.765 21.2577C51.6329 21.4229 51.4914 21.5797 51.3601 21.7465C51.2283 21.9141 51.1227 22.0929 51.0091 22.2814C50.9932 22.3078 50.9404 22.4611 50.9783 22.4861C51.0151 22.5103 51.1295 22.4243 51.1526 22.4068C51.3045 22.2913 51.439 22.1698 51.578 22.0434C51.7785 21.8611 51.9871 21.6484 52.1545 21.4343C52.2203 21.3609 52.286 21.2875 52.3518 21.2142C52.5403 20.9659 52.7419 20.7327 52.9233 20.4746C52.9876 20.3831 53.0551 20.2891 53.118 20.1956C53.1411 20.1538 53.1641 20.112 53.1872 20.0702C53.2131 20.0326 53.279 19.9488 53.2461 19.8987C53.2384 19.8987 53.2308 19.8987 53.2231 19.8987L53.2231 19.8988ZM24.0977 19.5175C24.3235 19.5132 24.4467 19.5529 24.5282 19.6915C24.5537 19.7349 24.575 19.8198 24.5564 19.8911C24.5427 19.944 24.504 20.0059 24.4821 20.0549C24.4421 20.1445 24.4178 20.2277 24.3771 20.3159C24.3288 20.4204 24.27 20.5322 24.2233 20.6358C24.0933 20.9246 23.9481 21.1957 23.8261 21.4855C23.751 21.6639 23.6469 21.8322 23.5699 22.0152C23.5511 22.0597 23.5145 22.1089 23.4956 22.1534C23.4296 22.3086 23.3465 22.4551 23.2829 22.6064C23.1872 22.8342 23.0814 23.0577 22.9856 23.2846C22.9401 23.3924 22.9187 23.5451 22.8293 23.6096C22.7796 23.6454 22.7198 23.6555 22.6499 23.671C22.3324 23.7418 21.8941 23.7061 21.6634 23.5738C21.5277 23.4959 21.5616 23.4304 21.6173 23.2923C21.7023 23.0813 21.7968 22.8618 21.8991 22.6627C21.942 22.5793 21.9612 22.4892 22.0093 22.4094C22.04 22.3584 22.061 22.3032 22.0862 22.2456C22.1383 22.1262 22.2046 22.0106 22.2579 21.8873C22.2766 21.8439 22.3137 21.7952 22.3322 21.7517C22.4194 21.546 22.531 21.3545 22.6294 21.1605C22.7655 20.8923 22.8938 20.62 23.0522 20.3723C23.1076 20.2858 23.1455 20.1962 23.1983 20.1087C23.2596 20.007 23.3318 19.9079 23.3982 19.8118C23.4443 19.7449 23.491 19.6714 23.5571 19.625C23.5822 19.6074 23.6243 19.62 23.6596 19.6096C23.7393 19.5862 23.8368 19.5513 23.9261 19.5329C23.9833 19.5277 24.0405 19.5226 24.0978 19.5175L24.0977 19.5175ZM38.007 19.4433C37.9831 19.4475 37.9591 19.4518 37.9352 19.4561C37.8317 19.483 37.725 19.5036 37.6226 19.5329C37.4171 19.5916 37.2256 19.7009 37.0768 19.8195C37.0272 19.859 36.8768 20.0131 36.941 20.1061C36.9865 20.1721 37.2332 20.2747 37.333 20.2929C37.3675 20.2993 37.4652 20.3321 37.4842 20.3211C37.5335 20.2926 37.5618 20.2115 37.5944 20.165C37.6789 20.0445 37.7638 19.9212 37.8404 19.7939C37.8959 19.7112 37.9515 19.6284 38.007 19.5457C38.0236 19.5166 38.0689 19.4876 38.0428 19.4484C38.0309 19.4467 38.0189 19.445 38.007 19.4433V19.4433ZM27.5238 19.4023C28.1596 19.3951 28.6952 19.5037 29.051 19.7785C29.1643 19.866 29.3016 20.0069 29.2612 20.2264C29.2541 20.2647 29.2563 20.3 29.2432 20.3313C29.185 20.4706 29.02 20.7275 28.8922 20.7868C28.8546 20.8043 28.8078 20.8022 28.7615 20.8124C28.6887 20.8284 28.5421 20.8599 28.4976 20.9046C28.4762 20.9412 28.4548 20.9779 28.4335 21.0146C28.39 21.0789 28.3515 21.1469 28.308 21.2142C28.1431 21.469 27.9961 21.7354 27.8365 21.9999C27.7508 22.1418 27.668 22.2921 27.6007 22.4503C27.5873 22.4819 27.5347 22.5841 27.5495 22.6218C27.5537 22.6278 27.558 22.6337 27.5623 22.6397C27.634 22.6476 27.7451 22.5856 27.8032 22.5629C27.999 22.4864 28.1799 22.403 28.3618 22.3121C28.4064 22.2898 28.5682 22.2565 28.5899 22.2277C28.6343 22.1686 28.5314 21.9805 28.5745 21.8745C28.593 21.8289 28.6521 21.8029 28.6898 21.7747C28.8338 21.667 29.0181 21.5971 29.2151 21.5418C29.2553 21.5368 29.2954 21.5316 29.3355 21.5265C29.5191 21.4903 29.7681 21.4864 29.9506 21.5265C30.0169 21.5411 30.1476 21.5541 30.171 21.6033C30.1822 21.6385 30.1749 21.7063 30.1684 21.7466C30.1552 21.8283 30.1573 21.9779 30.171 22.0562C30.1821 22.1177 30.1932 22.1791 30.2043 22.2405C30.2829 22.4369 30.4328 22.579 30.5963 22.6909C30.6346 22.7171 30.8095 22.877 30.8577 22.8444C30.9006 22.8192 30.8444 22.6241 30.8346 22.5783C30.7964 22.3986 30.7143 22.2356 30.6322 22.0946C30.6053 22.0484 30.5945 22.0003 30.5656 21.9564C30.5047 21.8639 30.4574 21.7639 30.399 21.6672C30.2659 21.4468 30.149 21.219 30.0762 20.9353C30.0702 20.8824 30.0642 20.8295 30.0582 20.7766C30.0398 20.6716 30.022 20.5103 30.048 20.3953C30.068 20.3066 30.1135 20.2341 30.1454 20.1598C30.2894 19.8238 30.4996 19.6029 30.868 19.4919C30.9209 19.4876 30.9739 19.4833 31.0269 19.4791C31.1456 19.4672 31.2643 19.4552 31.3831 19.4433C31.4309 19.4416 31.4787 19.4399 31.5265 19.4381C31.6273 19.4313 31.7281 19.4245 31.8289 19.4177C31.953 19.3978 32.1595 19.4002 32.2799 19.4203C32.3926 19.4305 32.5054 19.4407 32.6182 19.451C32.8109 19.4903 33.0036 19.5389 33.1588 19.6199C33.2324 19.6582 33.3547 19.7894 33.4074 19.8553C33.4811 19.9475 33.5531 20.0323 33.6022 20.1522C33.6627 20.3 33.6091 20.5558 33.5586 20.6742C33.5225 20.759 33.48 20.8719 33.4305 20.9481C33.3546 21.0647 33.2319 21.152 33.146 21.2603C33.099 21.3195 33.0281 21.414 32.9538 21.442C32.8949 21.4505 32.836 21.4591 32.777 21.4676C32.4821 21.5257 32.0698 21.4913 31.9494 21.3064C31.8229 21.1123 31.9697 21.0336 32.0621 20.9148C32.195 20.7439 32.3321 20.5762 32.4234 20.3646C32.4479 20.3079 32.5044 20.2129 32.4849 20.1215C32.4465 19.9414 32.1178 19.815 31.8699 19.8732C31.7527 19.9008 31.5861 20.0148 31.5291 20.1036C31.5197 20.1411 31.5103 20.1786 31.5009 20.2162C31.452 20.378 31.4457 20.7381 31.483 20.9225C31.5695 21.3508 31.7393 21.6861 31.8956 22.0383C31.9549 22.172 32.0057 22.3091 32.0621 22.4426C32.0698 22.4717 32.0775 22.5006 32.0852 22.5297C32.1326 22.6465 32.1699 22.7909 32.1979 22.9238C32.2031 22.9707 32.2082 23.0176 32.2133 23.0645C32.2363 23.1808 32.2445 23.3022 32.1877 23.3895C32.1252 23.4856 32.0427 23.5682 31.9314 23.6147C31.7797 23.6782 31.5737 23.6787 31.36 23.6787C31.2464 23.677 31.1328 23.6753 31.0192 23.6736C30.9714 23.6753 30.9235 23.677 30.8757 23.6787C30.731 23.653 30.6019 23.6196 30.4708 23.5738C30.0518 23.4275 29.681 23.2156 29.3561 22.9724C29.269 22.9016 29.1819 22.8308 29.0948 22.76C29.0686 22.739 29.0298 22.6949 28.9718 22.7088C28.9099 22.7236 28.8667 22.7737 28.8206 22.806C28.7201 22.8765 28.6168 22.9418 28.5182 23.0134C28.4167 23.087 28.3044 23.1388 28.1979 23.2078C27.9853 23.3456 27.7586 23.4465 27.5035 23.5457C27.4417 23.5696 27.3613 23.6038 27.2933 23.6199C26.9859 23.6926 26.6719 23.6883 26.4144 23.5738C26.2322 23.4928 26.0927 23.3289 25.9685 23.1874C25.9465 23.1622 25.9363 23.1251 25.9147 23.1004C25.8541 23.1004 25.8209 23.1622 25.784 23.1899C25.7063 23.2454 25.6285 23.3008 25.5508 23.3563C25.2348 23.5757 24.637 23.8206 24.1414 23.6147C23.9529 23.5365 23.7962 23.4158 23.6623 23.2821C23.6301 23.2499 23.5453 23.178 23.5341 23.1336C23.5115 23.044 23.5858 22.8284 23.6084 22.76C23.7221 22.4165 23.8967 22.141 24.0953 21.8822C24.5871 21.2413 25.2082 20.7225 25.8634 20.2443C26.2615 19.9538 26.7176 19.65 27.201 19.451C27.2805 19.4365 27.36 19.422 27.4394 19.4075C27.4675 19.4058 27.4957 19.4041 27.5239 19.4024L27.5238 19.4023ZM39.3779 19.3665C39.2797 19.4126 39.2521 19.5249 39.1985 19.6148C39.1335 19.7238 39.0668 19.8385 39.0012 19.9474C38.979 19.9901 38.9568 20.0328 38.9346 20.0754C38.9132 20.1056 38.8029 20.2711 38.8167 20.3083C38.8184 20.3117 38.8201 20.3151 38.8219 20.3185C38.8823 20.3306 39.0148 20.3092 39.0858 20.298C39.137 20.2964 39.1883 20.2947 39.2395 20.2929C39.354 20.2827 39.4684 20.2725 39.5829 20.2622C39.7093 20.2563 39.8357 20.2503 39.9621 20.2443C40.0638 20.2341 40.1654 20.2239 40.2671 20.2136C40.3106 20.2119 40.3542 20.2102 40.3978 20.2085C40.681 20.1636 40.9788 20.1549 41.2408 20.0934C41.2895 20.0865 41.3382 20.0797 41.3869 20.0729C41.4766 20.0489 41.5878 20.0209 41.6764 20.0012C41.7378 19.9876 41.8409 19.984 41.8686 19.9372C41.8652 19.9287 41.8618 19.9202 41.8584 19.9117C41.5695 19.8061 41.2619 19.7165 40.9615 19.625C40.8587 19.5937 40.7675 19.5924 40.6642 19.5636C40.2748 19.4549 39.8705 19.3665 39.3779 19.3665L39.3779 19.3665ZM24.8229 18.1739C25.143 18.1688 25.4872 18.261 25.6276 18.435C25.7092 18.5361 25.7538 18.6587 25.6583 18.7881C25.3737 19.174 24.202 19.1803 24.0106 18.7113C23.9776 18.6305 24.015 18.5413 24.0413 18.4913C24.1242 18.334 24.35 18.2414 24.5513 18.2046C24.6418 18.1944 24.7324 18.1842 24.8229 18.1739L24.8229 18.1739ZM39.6854 16.1855C39.5855 16.1888 39.4855 16.1923 39.3856 16.1957C39.3318 16.1983 39.278 16.2008 39.2241 16.2034C39.0764 16.2204 38.9286 16.2375 38.7809 16.2546C38.6446 16.2861 38.5034 16.3026 38.3657 16.3339C38.1247 16.3887 37.8911 16.4664 37.6713 16.5488C37.6255 16.566 37.5705 16.6019 37.5252 16.6205C37.2647 16.7275 37.0291 16.8664 36.8205 17.0274C36.7419 17.0882 36.672 17.1629 36.5951 17.2245C36.3468 17.4234 36.1339 17.9293 36.308 18.348C36.4051 18.5814 36.5778 18.7531 36.7232 18.9392C36.7515 18.9754 36.8687 19.1325 36.9025 19.1439C36.9478 19.1591 36.9955 19.1252 37.0256 19.1132C37.1112 19.0789 37.1947 19.0776 37.2844 19.0492C37.5433 18.9672 37.8384 18.9062 38.1146 18.8496C38.1985 18.8324 38.2677 18.821 38.3427 18.8061C38.4159 18.7915 38.5047 18.7989 38.5579 18.7626C38.6154 18.7234 38.6647 18.5885 38.704 18.5245C38.7692 18.4184 38.843 18.3065 38.9013 18.1969C38.9423 18.12 38.9806 18.0415 39.032 17.9743C39.0591 17.9389 39.1061 17.9193 39.1473 17.8975C39.2987 17.8178 39.4691 17.7866 39.6931 17.7721C39.8021 17.7651 39.9763 17.7689 40.0237 17.8284C40.0695 17.886 40.0018 18.0013 39.9827 18.0486C39.9228 18.1968 39.8678 18.3315 39.7956 18.4682C39.7742 18.5089 39.7112 18.5836 39.7213 18.6397C39.7577 18.6854 39.9768 18.674 40.0544 18.6883C40.1628 18.7084 40.2855 18.7036 40.4055 18.7241C40.5757 18.7534 40.7756 18.7651 40.9411 18.7958C40.994 18.8009 41.047 18.8061 41.0999 18.8112C41.2435 18.8413 41.3952 18.86 41.5407 18.8931C41.6703 18.9225 41.8141 18.967 41.9353 19.0082C41.9635 19.0133 41.9917 19.0184 42.0199 19.0236C42.1589 19.0659 42.3004 19.1081 42.4478 19.149C42.5817 19.1861 42.7204 19.2397 42.8629 19.2693C42.9054 19.2781 42.9662 19.3102 43.0167 19.2974C43.0632 19.2856 43.1911 19.1364 43.2242 19.0952C43.4102 18.8637 43.5866 18.6421 43.647 18.2814C43.6712 18.1376 43.64 17.9798 43.6112 17.8745C43.5197 17.5402 43.3085 17.3109 43.0679 17.1246C42.2692 16.5062 41.1007 16.1861 39.6855 16.1855H39.6854ZM16.2155 15.6557C16.8812 15.6522 17.5105 15.6925 18.0605 15.8118C18.2567 15.8544 18.4384 15.8832 18.614 15.9372C18.6439 15.9423 18.6738 15.9475 18.7037 15.9525C18.7686 15.972 18.8476 16.0046 18.9113 16.0242C18.981 16.0457 19.0334 16.0537 19.0983 16.0805C19.5263 16.2574 19.8943 16.5068 20.2335 16.774C20.3001 16.8355 20.3668 16.8969 20.4334 16.9583C20.5509 17.053 20.6692 17.1684 20.764 17.2858C20.8434 17.3712 20.9228 17.4565 21.0023 17.5418C21.1631 17.7299 21.3127 17.9308 21.4456 18.1458C21.6573 18.4884 21.8661 18.8585 21.9888 19.2897C22.0208 19.402 22.0486 19.5182 22.0734 19.6301C22.0794 19.677 22.0853 19.7239 22.0913 19.7708C22.1403 19.9951 22.1685 20.3962 22.1272 20.6512C22.1229 20.7169 22.1187 20.7825 22.1144 20.8482C22.0651 21.1042 22.0176 21.3452 21.9478 21.5751C21.9082 21.7057 21.8504 21.8475 21.7915 21.964C21.7361 22.0735 21.701 22.1805 21.6454 22.2865C21.5203 22.5253 21.3717 22.7583 21.2149 22.9698C21.1279 23.0872 21.0281 23.1963 20.9382 23.3101C20.7714 23.5214 20.5758 23.704 20.3821 23.8885C19.8454 24.3997 19.2115 24.8323 18.5243 25.1911C18.2178 25.3512 17.8908 25.4798 17.5634 25.6185C17.4991 25.6457 17.4427 25.652 17.3763 25.6774C17.2341 25.7318 17.0702 25.7883 16.9202 25.8335C16.8886 25.8394 16.857 25.8454 16.8254 25.8514C16.668 25.9022 16.5035 25.9347 16.3282 25.9742C16.1358 26.0176 15.9164 26.0509 15.7107 26.0894C15.6002 26.11 15.4839 26.1073 15.3801 26.1252C15.2706 26.144 15.1551 26.1221 15.0368 26.1405C14.9539 26.1422 14.871 26.1439 14.7882 26.1456C14.7071 26.1439 14.6259 26.1422 14.5448 26.1405C14.4875 26.1397 14.4303 26.1388 14.3731 26.138C14.2245 26.1226 14.0758 26.1072 13.9272 26.0919C13.7108 26.0525 13.493 26.0194 13.2891 25.9614C12.725 25.8008 12.2367 25.5605 11.8208 25.2525C11.6239 25.1066 11.426 24.9522 11.2801 24.756C11.1886 24.6329 11.113 24.499 11.0316 24.3645C11.0009 24.3139 10.9923 24.2601 10.9649 24.2058C10.7486 23.7771 10.6709 23.0249 10.8547 22.5014C10.9498 22.2309 11.112 22.0348 11.2827 21.8411C11.3326 21.7845 11.3988 21.7386 11.4646 21.6978C11.5516 21.644 11.6471 21.5837 11.7465 21.5417C11.9031 21.4756 12.0619 21.444 12.2411 21.3984C12.5335 21.3239 12.8433 21.2721 13.1559 21.2141C13.3976 21.1937 13.6394 21.1732 13.8811 21.1527C13.9485 21.1419 14.1075 21.1701 14.1424 21.1322C14.1957 21.0745 14.2329 20.9608 14.2706 20.8865C14.317 20.795 14.3709 20.6954 14.4243 20.6076C14.4677 20.5362 14.4888 20.4591 14.5319 20.3875C14.6459 20.1979 14.7376 19.9874 14.8522 19.7989C14.8797 19.7537 14.8903 19.7051 14.9188 19.6607C14.9971 19.539 15.052 19.4023 15.129 19.2768C15.2258 19.119 15.323 18.9514 15.4134 18.7906C15.4961 18.6435 15.5885 18.5038 15.6696 18.3606C15.7015 18.3045 15.7457 18.2015 15.7926 18.1636C15.9846 18.0086 16.2294 17.9432 16.5204 17.8821C16.6905 17.8463 16.8855 17.8856 16.9816 17.9588C17.0577 18.0168 17.0847 18.1607 17.0483 18.2787C17.0309 18.3349 16.9954 18.3859 16.9663 18.4323C16.9395 18.4748 16.9279 18.5181 16.9047 18.5628C16.8693 18.6312 16.8204 18.6995 16.7894 18.7726C16.7322 18.9079 16.6426 19.0349 16.5768 19.1642C16.4809 19.3523 16.3902 19.5443 16.2821 19.7221C16.2565 19.7642 16.2451 19.8058 16.2231 19.85C16.1755 19.9459 16.1117 20.0434 16.0643 20.1392C16.0232 20.2221 15.9866 20.3032 15.9413 20.3798C15.9096 20.4333 15.8945 20.4923 15.8618 20.5436C15.7867 20.6937 15.7115 20.8439 15.6363 20.994C15.6172 21.0388 15.5602 21.1105 15.5876 21.1604C15.7063 21.2024 15.8668 21.1759 16.0053 21.1987C16.2217 21.2343 16.4722 21.2348 16.6869 21.2704C16.7468 21.2738 16.8065 21.2772 16.8663 21.2806C16.9688 21.2934 17.0713 21.3062 17.1738 21.319C17.2251 21.3224 17.2764 21.3259 17.3276 21.3293C17.4346 21.3486 17.5497 21.3475 17.6684 21.3677C18.0606 21.4345 18.4793 21.4547 18.8651 21.5263C19.0334 21.5576 19.1897 21.555 19.3519 21.5903C19.5743 21.6387 19.8177 21.6543 20.0361 21.6978C20.0978 21.7101 20.1637 21.7103 20.2181 21.7234C20.2739 21.7367 20.4871 21.7803 20.5307 21.7541C20.5863 21.7206 20.6109 21.6126 20.6306 21.5442C20.648 21.4841 20.6852 21.4087 20.7049 21.3471C20.7347 21.2543 20.7396 21.1722 20.7664 21.0733C20.7967 20.962 20.8066 20.8172 20.8279 20.692C20.8296 20.6494 20.8314 20.6067 20.8331 20.5641C20.8331 20.5052 20.8331 20.4463 20.8331 20.3875C20.8314 20.3465 20.8296 20.3056 20.8279 20.2646C20.8062 20.1378 20.7923 19.9936 20.7639 19.8808C20.741 19.7901 20.7323 19.7232 20.7075 19.6376C20.6029 19.2761 20.3908 18.9245 20.1925 18.6498C20.1157 18.5435 20.0226 18.4477 19.9414 18.3453C19.8755 18.2624 19.7878 18.1768 19.7056 18.1098C19.668 18.0723 19.6304 18.0348 19.5928 17.9972C19.444 17.8807 19.3091 17.7513 19.1495 17.6441C18.9903 17.537 18.8332 17.4164 18.6652 17.3165C18.3714 17.1417 18.0542 16.9986 17.7325 16.8507C17.6362 16.8065 17.5436 16.7868 17.4429 16.7483C17.3457 16.7112 17.2319 16.664 17.1303 16.6332C16.9155 16.568 16.6924 16.5113 16.4691 16.4617C16.3158 16.4277 16.1575 16.4141 16.0053 16.3823C15.8374 16.3473 15.6696 16.366 15.4954 16.3388C15.4236 16.3371 15.3519 16.3354 15.2801 16.3337C15.1059 16.3337 14.9418 16.3385 14.7958 16.3645C14.6496 16.3905 14.5242 16.3871 14.391 16.4233C13.8621 16.5671 13.4392 16.7815 13.1635 17.1757C13.0425 17.3487 12.9546 17.5608 12.9124 17.8104C12.8938 17.9204 12.9419 18.0754 12.9713 18.1482C13.001 18.2214 13.0058 18.2893 13.0354 18.3606C13.0858 18.4821 13.1401 18.6098 13.2071 18.7189C13.2695 18.8205 13.3425 18.9157 13.4146 19.0081C13.4652 19.0728 13.5409 19.1206 13.5735 19.2026C13.5945 19.2553 13.5964 19.3637 13.5735 19.415C13.4743 19.6373 13.0685 19.7143 12.733 19.653C12.5231 19.6146 12.3352 19.5342 12.1795 19.438C11.9285 19.283 11.7138 19.019 11.6209 18.7086C11.5942 18.6194 11.5872 18.5494 11.5696 18.4476C11.5424 18.2899 11.5387 18.0891 11.5773 17.9409C11.5929 17.8812 11.6292 17.8193 11.6516 17.7669C11.696 17.6633 11.7388 17.5716 11.7951 17.4803C12.2367 16.764 12.9688 16.3517 13.8169 16.0394C14.0665 15.9476 14.34 15.9043 14.6062 15.8296C14.6498 15.8236 14.6933 15.8176 14.7369 15.8117C14.8539 15.7857 15.001 15.7623 15.1238 15.74C15.2818 15.723 15.4399 15.7059 15.5979 15.6888C15.8037 15.6777 16.0096 15.6666 16.2155 15.6555L16.2155 15.6557ZM81.9769 21.3473C81.9846 21.3473 81.9923 21.3473 82 21.3473C82 21.3789 82 21.4104 82 21.442C81.9923 21.442 81.9846 21.442 81.9769 21.442C81.9754 21.4725 81.9586 21.5085 81.9359 21.5188C81.8979 21.5375 81.7505 21.5188 81.695 21.5188C81.4892 21.5154 81.2833 21.5119 81.0775 21.5085C80.5676 21.4991 80.0576 21.4898 79.5477 21.4804C79.2914 21.4727 79.0351 21.465 78.7789 21.4573C78.5107 21.4531 78.2425 21.4488 77.9743 21.4445C77.818 21.4403 77.6617 21.436 77.5054 21.4317C77.2329 21.4232 76.9604 21.4147 76.6879 21.4061C76.5854 21.4045 76.4829 21.4027 76.3804 21.401C76.2924 21.3993 76.2045 21.3976 76.1165 21.3959C76.008 21.3925 75.8995 21.3891 75.791 21.3857C75.5886 21.3797 75.3861 21.3738 75.1837 21.3678C74.878 21.3635 74.5721 21.3593 74.2663 21.355C73.8726 21.3448 73.4788 21.3345 73.085 21.3243C72.9339 21.3226 72.7827 21.3209 72.6315 21.3192C72.4564 21.3183 72.2812 21.3175 72.1062 21.3166C71.8269 21.314 71.5475 21.3115 71.2682 21.3089C70.8899 21.3089 70.5114 21.3089 70.133 21.3089C69.9502 21.3132 69.7674 21.3175 69.5846 21.3217C69.5143 21.3479 69.4342 21.521 69.3925 21.5879C69.319 21.7058 69.2357 21.8226 69.1542 21.9334C69.0874 22.024 69.0332 22.121 68.962 22.2072C68.5078 22.7568 68.0457 23.305 67.3527 23.6147C67.263 23.6463 67.1733 23.6779 67.0836 23.7094C67.0294 23.7216 66.9459 23.7185 66.8889 23.7094C66.8428 23.7086 66.7966 23.7077 66.7505 23.7069C66.6472 23.6905 66.543 23.6929 66.4482 23.6761C66.2973 23.6495 66.1684 23.6515 66.0305 23.6173C65.6758 23.5293 65.351 23.3797 65.1797 23.108C65.0921 22.969 65.0323 22.8097 65.0003 22.6141C64.9934 22.572 64.9875 22.3411 64.9747 22.3351C64.9407 22.3194 64.8456 22.4158 64.8235 22.4298C64.6619 22.533 64.5165 22.6647 64.352 22.7651C64.1221 22.9054 63.8974 23.0644 63.655 23.1899C63.5283 23.2555 63.4049 23.3102 63.2758 23.3767C63.1242 23.4548 62.9632 23.5306 62.7889 23.584C62.7306 23.6019 62.6556 23.6393 62.5967 23.6582C62.5104 23.6859 62.4411 23.6928 62.3507 23.7171C62.3005 23.7306 62.2464 23.7604 62.1714 23.7478C62.0603 23.7292 61.9513 23.7259 61.8356 23.7017C61.3977 23.6104 61.1351 23.4738 60.9157 23.1643C60.8531 23.076 60.7717 22.9127 60.7363 22.8035C60.7239 22.7652 60.6924 22.6098 60.6697 22.5936C60.6671 22.5919 60.6646 22.5902 60.662 22.5885C60.6543 22.5928 60.6467 22.5971 60.6389 22.6013C60.6111 22.6927 60.6894 22.8456 60.6339 22.9366C60.57 23.0409 60.2613 23.1873 60.1316 23.2411C60.0201 23.2873 59.9026 23.3503 59.7908 23.3998C59.694 23.4426 59.6056 23.4657 59.5038 23.5022C59.4537 23.5201 59.387 23.5509 59.3372 23.5713C59.2633 23.6015 59.196 23.6055 59.1194 23.6327C58.9365 23.6975 58.7232 23.7462 58.5198 23.7888C58.4822 23.7922 58.4446 23.7956 58.407 23.799C57.8822 23.9031 57.3474 23.8224 57.1924 23.428C57.1602 23.346 57.2211 23.2711 57.2539 23.2258C57.3465 23.0977 57.4257 22.9619 57.5178 22.8368C57.6848 22.6101 57.8406 22.3795 58.0072 22.1535C58.2389 21.8394 58.4824 21.5304 58.7145 21.2169C58.7794 21.1264 58.8443 21.036 58.9093 20.9456C58.9605 20.8782 59.0118 20.8108 59.063 20.7434C59.1013 20.6825 59.1532 20.5941 59.0476 20.5566C58.9567 20.5244 58.7922 20.6331 58.7452 20.6667C58.6891 20.7067 58.6312 20.7366 58.5761 20.7767C58.5061 20.8322 58.436 20.8876 58.366 20.943C58.2814 21.019 58.1968 21.0949 58.1123 21.1708C57.9931 21.2666 57.8945 21.3842 57.7792 21.483C57.5985 21.638 57.4303 21.8174 57.2693 21.9923C57.0596 22.2199 56.833 22.4319 56.6286 22.6654C56.562 22.7345 56.4954 22.8036 56.4287 22.8727C56.2959 23.0387 56.1304 23.1783 55.9982 23.3436C55.9385 23.4101 55.8787 23.4766 55.8189 23.5432C55.795 23.5688 55.771 23.5944 55.7471 23.62C55.5799 23.7277 55.2377 23.8496 54.9399 23.7889C54.8456 23.7696 54.7493 23.7389 54.6657 23.7044C54.6478 23.6933 54.6299 23.6823 54.6119 23.6712C54.5566 23.6476 54.331 23.5286 54.3454 23.4588C54.3657 23.3609 54.4302 23.2873 54.4812 23.2182C54.5034 23.1815 54.5256 23.1448 54.5478 23.1081C54.588 23.0604 54.6282 23.0126 54.6683 22.9648C54.7064 22.9166 54.8225 22.8279 54.8272 22.7601C54.7642 22.7625 54.7263 22.823 54.6837 22.8497C54.5521 22.935 54.4206 23.0203 54.289 23.1056C53.977 23.2809 53.6469 23.4587 53.2794 23.5739C53.1958 23.6001 53.126 23.6071 53.0385 23.6328C52.8 23.7027 52.4451 23.7334 52.1852 23.6609C52.0102 23.6121 51.832 23.5086 51.7317 23.382C51.6952 23.3359 51.6474 23.2977 51.6138 23.2514C51.5984 23.2302 51.5972 23.1921 51.5728 23.1798C51.5694 23.1789 51.566 23.178 51.5625 23.1772C51.2402 23.4178 50.9772 23.6082 50.5375 23.7402C50.3284 23.803 49.9805 23.7702 49.8098 23.6993C49.6089 23.6158 49.3755 23.4597 49.2589 23.2924C49.232 23.2539 49.2216 23.1837 49.2127 23.1311C49.2144 23.091 49.2161 23.0509 49.2179 23.0108C49.2142 23.0014 49.1987 22.9937 49.182 22.998C49.1427 23.0202 49.1034 23.0424 49.0641 23.0646C48.9183 23.1283 48.7806 23.2126 48.6361 23.2744C48.2977 23.4192 47.9672 23.5653 47.5907 23.6711C47.5127 23.693 47.4191 23.7295 47.337 23.7479C46.8736 23.8513 46.4208 23.7389 46.3043 23.3666C46.2645 23.2393 46.307 23.0393 46.3453 22.9443C46.3555 22.9264 46.3658 22.9085 46.376 22.8905C46.4156 22.7801 46.4385 22.6749 46.4939 22.5834C46.5369 22.5125 46.5609 22.4356 46.6041 22.3659C46.7009 22.2097 46.7996 22.0548 46.904 21.9053C47.1258 21.5871 47.3873 21.3041 47.624 21.0019C47.7555 20.8603 47.8871 20.7186 48.0186 20.577C48.0465 20.5492 48.1579 20.4628 48.1519 20.4235C48.1156 20.376 47.7853 20.357 47.6855 20.3749C47.6075 20.3888 47.571 20.4659 47.5189 20.5079C47.4258 20.5983 47.3327 20.6888 47.2396 20.7792C47.2037 20.8176 47.1678 20.856 47.132 20.8944C47.0753 20.9405 47.0222 20.9992 46.9757 21.0556C46.8819 21.1691 46.7638 21.2627 46.6707 21.378C46.6195 21.4309 46.5682 21.4838 46.517 21.5367C46.3958 21.6703 46.2698 21.8012 46.1582 21.9436C46.0495 22.0825 45.9223 22.2055 45.82 22.3531C45.7846 22.404 45.7262 22.4521 45.7021 22.5118C45.6961 22.5544 45.6902 22.5971 45.6842 22.6397C45.6635 22.7484 45.668 22.8788 45.6432 22.9929C45.567 23.3427 45.4866 23.5928 45.3024 23.8323C45.1618 24.015 44.9936 24.1784 44.8129 24.3211C44.5924 24.4953 44.3785 24.6722 44.1313 24.8227C43.8984 24.9645 43.6587 25.1183 43.4035 25.2373C43.2176 25.324 43.0248 25.4009 42.8398 25.4907C42.8176 25.4966 42.7954 25.5026 42.7732 25.5086C42.7003 25.5386 42.6234 25.5635 42.5451 25.5956C42.1759 25.7469 41.7625 25.8504 41.3536 25.9615C41.3228 25.9658 41.292 25.9701 41.2613 25.9743C41.0973 26.0129 40.9082 26.052 40.7385 26.0895C40.6975 26.0938 40.6565 26.098 40.6155 26.1023C40.4825 26.1288 40.3195 26.148 40.1825 26.1739C40.1167 26.1791 40.0509 26.1842 39.9852 26.1893C39.7605 26.2276 39.4931 26.2162 39.2548 26.2533C39.1498 26.2558 39.0447 26.2584 38.9397 26.261C38.8278 26.261 38.7159 26.261 38.604 26.261C38.5613 26.261 38.5186 26.261 38.4759 26.261C38.3528 26.2524 38.2298 26.2439 38.1068 26.2353C38.0351 26.232 37.9634 26.2285 37.8916 26.2251C37.7524 26.2098 37.6131 26.1944 37.4739 26.1791C37.0822 26.1102 36.7016 26.0387 36.3566 25.9334C36.2811 25.9103 36.2189 25.9024 36.1465 25.8745C35.4076 25.5894 34.7642 25.2553 34.3297 24.6692C34.227 24.5307 34.1153 24.38 34.0478 24.2085C33.9491 23.9576 33.9755 23.4417 34.0325 23.1695C34.0707 22.9868 34.1343 22.7954 34.2195 22.6551C34.3713 22.4052 34.5537 22.1921 34.7807 22.0179C35.23 21.673 35.8044 21.4864 36.4438 21.3269C36.5809 21.2927 36.7203 21.2861 36.8563 21.2527C36.8939 21.2458 36.9315 21.239 36.9691 21.2322C36.9997 21.2128 37.0514 21.14 37.028 21.0991C36.8374 21.0438 36.5962 21.0607 36.4002 21.0147C36.1272 20.9506 35.9265 20.8737 35.7365 20.7306C35.666 20.6775 35.4952 20.5376 35.5085 20.4133C35.5467 20.0545 35.7825 19.8408 36.0082 19.666C36.0696 19.6208 36.1312 19.5756 36.1927 19.5304C36.2169 19.5153 36.2748 19.4948 36.2567 19.4485C36.2525 19.4397 36.2525 19.4399 36.2439 19.4357C36.225 19.4273 36.1886 19.4368 36.1644 19.4408C36.0884 19.4408 36.0124 19.4408 35.9364 19.4408C35.7472 19.41 35.5864 19.3418 35.4879 19.2207C35.3465 19.0468 35.1866 18.8637 35.1138 18.6244C35.0885 18.5411 35.0772 18.4655 35.0626 18.3787C35.0156 18.1003 35.0567 17.7791 35.1394 17.5751C35.1754 17.4866 35.1969 17.4036 35.2445 17.3269C35.437 17.0171 35.6823 16.7527 35.9825 16.5515C36.3413 16.3109 36.7877 16.0916 37.2407 15.9501C37.4949 15.8706 37.759 15.8081 38.0248 15.7402C38.0632 15.7351 38.1017 15.73 38.1401 15.7249C38.353 15.6729 38.594 15.6457 38.8217 15.6071C38.9461 15.5861 39.062 15.5879 39.1779 15.5687C39.3402 15.5602 39.5025 15.5517 39.6648 15.5432C39.7434 15.5398 39.822 15.5363 39.9005 15.5329C39.988 15.5193 40.1227 15.5159 40.2132 15.5304C40.3177 15.5471 40.4284 15.525 40.5258 15.5406C40.7086 15.5508 40.8914 15.5611 41.0741 15.5713C41.1938 15.5921 41.3291 15.5904 41.4559 15.6148C41.7813 15.6774 42.1181 15.7141 42.4118 15.8068C42.4459 15.8127 42.4801 15.8187 42.5143 15.8247C43.1609 16.0184 43.7085 16.2509 44.1799 16.6155C44.3241 16.727 44.4676 16.8512 44.5771 16.9968C44.6412 17.0821 44.6714 17.183 44.7257 17.2808C44.8928 17.5816 44.9967 18.1582 44.8334 18.5451C44.7008 18.8588 44.5125 19.1392 44.2747 19.3487C44.1808 19.4305 44.0868 19.5124 43.9929 19.5943C43.963 19.6181 43.9083 19.6452 43.8981 19.6865C43.8809 19.756 43.9431 19.7754 43.9749 19.7991C44.074 19.875 44.1731 19.9509 44.2722 20.0268C44.5643 20.2478 44.8305 20.528 45.0486 20.8228C45.1195 20.9251 45.1904 21.0275 45.2613 21.1299C45.2891 21.1727 45.3139 21.2541 45.3587 21.2783C45.4088 21.3054 45.4717 21.2261 45.497 21.2041C45.613 21.1035 45.7336 21.0012 45.8302 20.8816C45.8831 20.827 45.9361 20.7724 45.9891 20.7179C46.1385 20.5311 46.3127 20.3646 46.4554 20.1702C46.5041 20.0738 46.5528 19.9774 46.6015 19.881C46.7139 19.6924 46.8472 19.5267 47.032 19.4101C47.2136 19.2955 47.525 19.3308 47.7777 19.2873C47.8655 19.2721 48.0089 19.2733 48.0442 19.3282C48.0646 19.36 48.0521 19.4299 48.0391 19.4613C48.0204 19.5062 47.9914 19.5643 47.9724 19.6097C47.9656 19.637 47.9588 19.6643 47.9519 19.6916C47.9434 19.7134 47.93 19.7273 47.9263 19.7556C47.9533 19.796 48.0125 19.7577 48.0544 19.7479C48.1766 19.7206 48.2988 19.6933 48.4209 19.666C48.5393 19.6364 48.6433 19.6324 48.7719 19.6097C49.1394 19.5448 49.7583 19.5 49.9174 19.7761C49.9631 19.8554 49.9524 20.0104 49.9174 20.0959C49.869 20.2141 49.7762 20.2755 49.6816 20.3467C49.5923 20.414 49.5094 20.4906 49.4151 20.554C49.3091 20.6254 49.2088 20.7139 49.1076 20.792C48.9132 20.9422 48.7189 21.0876 48.5311 21.2424C48.4748 21.2888 48.4275 21.3586 48.3824 21.4165C48.2684 21.5629 48.1455 21.6994 48.0365 21.8541C47.9435 21.986 47.8512 22.1122 47.7828 22.2712C47.7623 22.3189 47.7126 22.4009 47.729 22.4785C47.7716 22.6791 48.0434 22.5486 48.1723 22.5118C48.3148 22.4711 48.4677 22.4047 48.6028 22.3506C48.7573 22.2887 48.9143 22.2466 49.0487 22.1637C49.1107 22.1255 49.2202 21.9624 49.3306 22.0025C49.4149 22.0332 49.3564 22.361 49.3921 22.458C49.3963 22.4572 49.4006 22.4563 49.4049 22.4555C49.4573 22.4326 49.5566 22.2058 49.5996 22.1458C49.6705 22.0443 49.7414 21.9428 49.8123 21.8413C49.9352 21.6827 50.067 21.5323 50.1941 21.3781C50.2727 21.297 50.3513 21.216 50.4299 21.1349C50.4895 21.0627 50.562 20.9892 50.6349 20.9302C50.6922 20.8838 50.7363 20.818 50.7937 20.7716C50.9874 20.6152 51.1626 20.4395 51.3626 20.2879C51.6939 20.0368 52.0126 19.7741 52.3876 19.5636C52.5314 19.4829 52.6789 19.3887 52.8386 19.3231C52.9469 19.2786 53.2465 19.2432 53.4075 19.2693C53.4545 19.2702 53.5014 19.271 53.5484 19.2719C53.6834 19.2936 53.7979 19.2929 53.9277 19.3205C54.1713 19.3722 54.408 19.4477 54.5914 19.5611C54.6993 19.6277 54.8262 19.7077 54.8784 19.8272C55.0038 20.1146 54.8488 20.3181 54.7144 20.4901C54.6761 20.539 54.6205 20.6193 54.5606 20.6436C54.4833 20.6749 54.375 20.6888 54.2967 20.7127C54.2659 20.7204 54.2352 20.728 54.2044 20.7357C54.1387 20.7766 54.1035 20.8455 54.0584 20.9072C54.0025 20.9835 53.9459 21.0598 53.8892 21.1375C53.6398 21.4794 53.3982 21.8237 53.1615 22.1817C53.0859 22.296 53.0086 22.4097 52.9514 22.5425C52.9354 22.5797 52.8935 22.6208 52.9104 22.6756C52.9543 22.6972 53.0811 22.6461 53.123 22.6244C53.1866 22.5916 53.255 22.5762 53.3229 22.5476C53.4319 22.5018 53.5472 22.4462 53.6535 22.3966C53.7094 22.3706 53.7595 22.3623 53.8149 22.3352C54.0174 22.2363 54.2365 22.1476 54.4427 22.0537C54.5012 22.0271 54.5523 22.0187 54.6119 21.9923C54.7282 21.9407 54.8589 21.8903 54.9783 21.8413C55.0494 21.8121 55.1128 21.8076 55.1859 21.7799C55.261 21.7514 55.4512 21.6848 55.56 21.7031C55.6021 21.7102 55.6201 21.7325 55.6625 21.7338C55.7119 21.7071 55.7495 21.6273 55.783 21.5828C55.8964 21.4319 56.0152 21.2847 56.1289 21.1324C56.4108 20.7549 56.7171 20.3926 57.0053 20.0217C57.0894 19.9134 57.182 19.8124 57.2641 19.7044C57.3178 19.6336 57.3778 19.5422 57.4511 19.492C57.7105 19.3143 58.0631 19.4151 58.2583 19.5713C58.3031 19.6071 58.4018 19.7179 58.389 19.8042C58.3795 19.8689 58.3413 19.9049 58.307 19.9449C58.2329 20.0316 58.1431 20.1143 58.0969 20.2264C58.1003 20.2315 58.1037 20.2367 58.1071 20.2418C58.162 20.2409 58.2024 20.1937 58.243 20.1753C58.3628 20.1209 58.4777 20.0546 58.5966 20.0038C58.8865 19.8799 59.1822 19.7596 59.4986 19.6634C59.602 19.632 59.7017 19.624 59.8086 19.5969C60.1226 19.5174 60.479 19.5796 60.5543 19.8272C60.6361 20.0962 60.4454 20.374 60.3544 20.5233C60.0317 21.0534 59.6319 21.4898 59.2705 21.9769C59.1585 22.1278 59.0255 22.2722 58.9348 22.4427C58.9072 22.4945 58.8398 22.5403 58.8579 22.6193C58.8946 22.6444 58.9332 22.6116 58.9732 22.6014C59.0876 22.5722 59.1813 22.5197 59.2808 22.4785C59.4579 22.4052 59.6212 22.3302 59.7933 22.2508C59.8361 22.2309 59.8873 22.1933 59.9316 22.1765C59.9923 22.1535 60.0448 22.1242 60.0982 22.0972C60.1204 22.0895 60.1426 22.0819 60.1648 22.0742C60.2403 22.029 60.3311 21.9884 60.4185 21.959C60.4455 21.9499 60.4782 21.9189 60.5184 21.9283C60.6073 21.949 60.6418 22.0866 60.7465 22.0307C60.8114 21.996 60.8324 21.789 60.8721 21.7159C60.9304 21.6083 60.9811 21.4966 61.036 21.3858C61.123 21.2101 61.2338 21.0418 61.3359 20.8765C61.4187 20.7423 61.5226 20.6178 61.6177 20.4952C62.0618 19.923 62.6669 19.4132 63.5319 19.2642C63.707 19.2685 63.8822 19.2727 64.0573 19.277C64.0991 19.2779 64.141 19.2787 64.1828 19.2796C64.2998 19.2941 64.4169 19.3086 64.5338 19.3231C65.0534 19.452 65.2832 19.6805 65.3821 20.229C65.3946 20.2986 65.3657 20.3547 65.3513 20.4056C65.3092 20.5542 65.269 20.6825 65.1898 20.7921C65.1485 20.8493 65.1172 20.9087 65.0745 20.9636C64.9297 21.1499 64.7356 21.2783 64.5441 21.4191C64.4753 21.4697 64.3975 21.53 64.3186 21.5675C64.2586 21.596 64.1791 21.607 64.1085 21.6238C63.9738 21.656 63.7466 21.7015 63.5832 21.652C63.4201 21.6026 63.3036 21.5157 63.1988 21.4089C63.1526 21.3618 63.0886 21.3155 63.127 21.2271C63.1521 21.1694 63.3379 21.0539 63.3961 21.0096C63.5726 20.8752 63.7513 20.7151 63.8804 20.5336C63.9604 20.4211 64.0177 20.299 64.047 20.1344C64.0583 20.0709 64.0364 19.9266 63.9983 19.9092C63.9409 19.8852 63.8174 19.9282 63.783 19.9424C63.7583 19.9493 63.7335 19.9561 63.7088 19.9629C63.5935 20.0136 63.4993 20.0925 63.4064 20.1651C63.0369 20.4537 62.8181 20.8945 62.5787 21.3141C62.5499 21.3647 62.5414 21.4156 62.5146 21.4677C62.4584 21.5773 62.4 21.7064 62.3583 21.826C62.2891 22.0243 62.2288 22.226 62.1892 22.453C62.1723 22.5498 62.1828 22.6808 62.2533 22.7012C62.2824 22.7097 62.3124 22.6932 62.3327 22.6884C62.438 22.6636 62.5312 22.6335 62.6248 22.6065C62.8008 22.5559 62.9656 22.5014 63.1245 22.4376C63.1492 22.4317 63.174 22.4257 63.1988 22.4197C63.3536 22.3576 63.5229 22.2969 63.6703 22.2252C63.7295 22.1964 63.7866 22.1912 63.8445 22.1613C63.933 22.1156 64.0258 22.0785 64.1213 22.0384C64.2571 21.9814 64.3921 21.9001 64.5236 21.8388C64.889 21.6683 65.2343 21.4659 65.5332 21.2271C65.5443 21.2118 65.5554 21.1965 65.5665 21.1811C65.6096 21.1238 65.6537 21.0679 65.6972 21.0096C65.7946 20.8791 65.8965 20.7515 65.9919 20.6181C66.0769 20.4992 66.1845 20.3944 66.2738 20.2803C66.5143 19.9727 66.9126 19.6374 67.3167 19.4971C67.3543 19.4912 67.3919 19.4852 67.4295 19.4792C67.4636 19.469 67.4978 19.4588 67.532 19.4485C67.7141 19.4074 67.987 19.4532 68.1547 19.4818C68.1948 19.4844 68.235 19.4869 68.2751 19.4895C68.3605 19.5023 68.446 19.5151 68.5313 19.5279C68.5758 19.5313 68.6202 19.5347 68.6646 19.5381C69.0044 19.6015 69.3045 19.696 69.4769 19.9246C69.5736 20.0528 69.6495 20.2179 69.6947 20.3954C69.7089 20.4513 69.7216 20.6179 69.7613 20.636C69.8655 20.636 69.9697 20.636 70.074 20.636C70.2823 20.6334 70.4908 20.6309 70.6992 20.6283C70.817 20.6258 70.935 20.6232 71.0528 20.6207C71.1724 20.6155 71.292 20.6104 71.4116 20.6053C71.5363 20.6019 71.661 20.5985 71.7857 20.5951C72.0505 20.5814 72.3153 20.5678 72.5801 20.5541C72.6569 20.5524 72.7338 20.5507 72.8107 20.549C73.0285 20.5354 73.2464 20.5217 73.4642 20.5081C73.5384 20.5055 73.6128 20.503 73.6871 20.5004C73.8501 20.4748 74.0261 20.4911 74.197 20.4646C74.2594 20.462 74.3217 20.4595 74.3841 20.4569C74.5284 20.4458 74.6728 20.4347 74.8171 20.4236C74.8854 20.4211 74.9538 20.4185 75.0221 20.416C75.1383 20.4057 75.2545 20.3955 75.3707 20.3852C75.4279 20.3835 75.4851 20.3818 75.5424 20.3801C75.6073 20.3759 75.6722 20.3716 75.7371 20.3673C76.025 20.32 76.3506 20.3456 76.6391 20.3008C76.6963 20.2991 76.7535 20.2974 76.8108 20.2957C76.9372 20.2855 77.0636 20.2752 77.19 20.265C77.2464 20.2624 77.3028 20.2599 77.3591 20.2573C77.5241 20.2318 77.6989 20.2487 77.8563 20.224C77.9579 20.2198 78.0596 20.2155 78.1612 20.2112C78.3611 20.1984 78.561 20.1856 78.7609 20.1728C78.8386 20.1711 78.9163 20.1695 78.994 20.1678C79.2289 20.1549 79.4638 20.1422 79.6987 20.1294C79.7961 20.1276 79.8934 20.1259 79.9908 20.1242C80.0267 20.1226 80.0626 20.1209 80.0984 20.1191C80.1181 20.1072 80.1377 20.0953 80.1574 20.0833C80.2585 20.0472 80.3959 20.0622 80.5007 20.0884C80.5601 20.1033 80.6298 20.1386 80.6827 20.1601C80.9915 20.2857 81.2108 20.4465 81.454 20.631C81.6232 20.7593 81.7685 20.9175 81.882 21.1019C81.9228 21.1682 81.971 21.2483 81.9768 21.3475L81.9769 21.3473ZM0 23.4433C0 23.4373 0 23.4313 0 23.4254C0.00766967 23.4245 0.0153656 23.4237 0.0230615 23.4228C0.0268176 23.3667 0.062408 23.3199 0.0794284 23.2769C0.136426 23.1334 0.192188 22.9936 0.248555 22.8572C0.418181 22.4468 0.574595 22.037 0.758483 21.6416C0.785406 21.5838 0.793864 21.5296 0.822546 21.4727C0.908042 21.3034 0.979065 21.1151 1.05828 20.943C1.08492 20.8851 1.09369 20.8309 1.12235 20.7741C1.2345 20.552 1.31432 20.3132 1.41702 20.0805C1.61935 19.6222 1.8128 19.1436 2.00129 18.673C2.12116 18.3736 2.21782 18.0662 2.33954 17.7696C2.36714 17.7023 2.37434 17.6443 2.39848 17.5751C2.43299 17.4762 2.48193 17.3645 2.51379 17.2629C2.54447 17.1651 2.56067 17.0529 2.61116 16.9712C2.71483 16.8033 2.94912 16.6507 3.15184 16.5796C3.16894 16.5703 3.18601 16.5608 3.20311 16.5515C3.29362 16.516 3.56122 16.4642 3.69253 16.4977C3.75693 16.5142 3.82118 16.7238 3.80274 16.833C3.78299 16.9498 3.75451 17.0776 3.72586 17.1887C3.71903 17.2399 3.7122 17.2911 3.70537 17.3422C3.66965 17.4812 3.65638 17.6283 3.62592 17.7799C3.5815 18.001 3.55035 18.249 3.50803 18.4759C3.50294 18.5322 3.49779 18.5886 3.49267 18.6449C3.48242 18.7054 3.47218 18.766 3.46191 18.8266C3.45766 18.8854 3.45337 18.9443 3.44909 19.0032C3.43885 19.0782 3.42861 19.1533 3.41836 19.2283C3.41579 19.2821 3.41324 19.3359 3.41067 19.3896C3.37912 19.5837 3.37912 19.7904 3.37224 20.0089C3.3559 20.5273 3.37027 21.058 3.49267 21.4574C3.58289 21.7517 3.67582 21.9882 3.90525 22.1407C3.97722 22.1885 4.12536 22.2578 4.26142 22.2354C4.32207 22.2268 4.38272 22.2183 4.44339 22.2098C4.75656 22.1224 4.96758 21.929 5.19163 21.7543C5.43848 21.5617 5.67106 21.2959 5.86044 21.0453C5.97938 20.888 6.10826 20.7337 6.22431 20.5719C6.43816 20.2739 6.61966 19.9515 6.82136 19.6404C6.87875 19.5519 6.91581 19.4578 6.97 19.3665C7.03574 19.2559 7.09752 19.1342 7.16473 19.0236C7.2076 18.9531 7.22867 18.878 7.2698 18.8061C7.32188 18.715 7.37893 18.6123 7.42353 18.5169C7.59668 18.1464 7.77526 17.7737 7.93603 17.3934C8.04478 17.1363 8.13723 16.8826 8.2538 16.6359C8.38831 16.3512 8.52836 16.0767 8.70479 15.8374C8.77311 15.7448 8.84828 15.6473 8.93798 15.5764C8.97407 15.5479 9.07327 15.5037 9.11735 15.4843C9.14041 15.4766 9.16347 15.4689 9.18653 15.4612C9.31584 15.3841 9.70699 15.2657 9.85534 15.4075C9.91208 15.4617 10.0168 15.6599 9.98347 15.7964C9.97123 15.8467 9.93052 15.8973 9.91171 15.9423C9.86732 16.0486 9.82049 16.1424 9.77592 16.2494C9.75577 16.2977 9.71921 16.3519 9.69903 16.4004C9.60595 16.6244 9.49841 16.8411 9.40436 17.0607C9.19441 17.5507 8.99702 18.0348 8.78934 18.5297C7.58194 21.407 6.48258 24.381 5.38889 27.3716C5.25672 27.733 5.149 28.1013 5.00709 28.4541C5.00023 28.4823 4.99343 28.5104 4.98657 28.5386C4.9327 28.6696 4.88892 28.8195 4.83539 28.9506C4.82942 28.9771 4.82344 29.0035 4.81745 29.0299C4.71572 29.2972 4.64921 29.6115 4.48434 29.8156C4.37594 29.9498 4.0887 30.079 3.81808 30.0152C3.4503 29.9286 3.26492 29.6392 3.37991 29.1886C3.47793 28.8046 3.63196 28.4617 3.76429 28.1035C3.81009 27.9795 3.86982 27.8445 3.92059 27.7222C4.02109 27.4801 4.09453 27.2387 4.19221 26.9954C4.3159 26.6873 4.44757 26.3668 4.56377 26.0562C4.73016 25.6113 4.89498 25.169 5.0737 24.7356C5.14388 24.5654 5.19066 24.3992 5.26076 24.2289C5.40854 23.8701 5.55363 23.5044 5.68614 23.1336C5.72136 23.0351 5.77692 22.9363 5.8066 22.8316C5.81792 22.7916 5.85122 22.7644 5.84245 22.7139C5.8382 22.7088 5.83391 22.7037 5.82963 22.6986C5.76772 22.6979 5.72194 22.7486 5.6759 22.7677C5.52051 22.8319 5.37056 22.9096 5.21722 22.975C5.08822 23.03 4.96475 23.0732 4.82774 23.1157C4.7205 23.149 4.59747 23.1964 4.48692 23.2309C4.45618 23.236 4.42543 23.2411 4.39467 23.2462C4.03075 23.3547 3.46057 23.4212 3.06729 23.2923C3.03572 23.2854 3.00407 23.2786 2.9725 23.2718C2.92343 23.2518 2.86538 23.2195 2.81876 23.2001C2.8034 23.195 2.788 23.1899 2.77264 23.1848C2.59923 23.0741 2.43777 22.9577 2.3165 22.7958C2.29515 22.7625 2.27379 22.7293 2.25247 22.696C2.21386 22.6422 2.16705 22.5767 2.13968 22.5143C2.08148 22.3815 2.03525 22.2402 1.97825 22.0997C1.96296 22.062 1.97011 21.9766 1.93725 21.9564C1.93383 21.9555 1.93039 21.9547 1.92698 21.9538C1.87332 21.9825 1.85556 22.0743 1.83218 22.133C1.78154 22.2599 1.71391 22.3824 1.66306 22.5143C1.64433 22.5629 1.60976 22.618 1.58875 22.6653C1.53625 22.7834 1.49685 22.8957 1.44269 23.0134C1.4223 23.0576 1.38913 23.1116 1.37093 23.1566C1.28333 23.3736 1.20847 23.5855 1.01988 23.7017C0.852857 23.8047 0.499947 23.9037 0.271643 23.7837C0.11628 23.702 0.0802426 23.6195 0.0205137 23.4433C0.0136846 23.4433 0.00685542 23.4433 2.6266e-05 23.4433L0 23.4433ZM44.7079 13.1375C45.0949 13.1305 45.3974 13.2315 45.6791 13.3346C45.9538 13.4351 46.2309 13.5108 46.5247 13.5905C46.5683 13.5956 46.6119 13.6007 46.6554 13.6058C46.7539 13.6247 46.8588 13.6391 46.9783 13.6391C47.0465 13.6391 47.204 13.6177 47.2422 13.6365C47.2391 13.6907 47.0701 13.79 47.027 13.8233C46.7921 14.0051 46.5266 14.1613 46.2377 14.2891C46.162 14.3226 46.0808 14.3726 46.0046 14.4043C45.8296 14.477 45.6515 14.5462 45.4741 14.6142C45.4468 14.6201 45.4195 14.6261 45.3921 14.6321C45.1079 14.745 44.78 14.8011 44.4491 14.8701C44.284 14.9045 44.1246 14.8947 43.9545 14.9213C43.8965 14.9221 43.8383 14.923 43.7803 14.9238C43.6736 14.9238 43.5667 14.9238 43.46 14.9238C43.4216 14.923 43.3831 14.9221 43.3447 14.9213C43.2789 14.9196 43.2131 14.9179 43.1474 14.9162C42.9963 14.8924 42.8376 14.8989 42.6836 14.8701C42.5898 14.8526 42.4867 14.8494 42.3837 14.8292C42.081 14.7695 41.759 14.7278 41.4587 14.6705C41.1578 14.613 40.8502 14.5955 40.5439 14.5451C40.4491 14.5391 40.3542 14.5332 40.2594 14.5272C40.1578 14.5212 40.0561 14.5152 39.9545 14.5093C39.9035 14.5091 39.837 14.5172 39.8161 14.4862C39.8389 14.4499 40.1041 14.3828 40.1672 14.3634C40.3554 14.3055 40.5519 14.2314 40.736 14.1664C40.8088 14.1406 40.8723 14.1345 40.9436 14.1049C40.959 14.0964 40.9744 14.0879 40.9897 14.0793C41.0153 14.0742 41.041 14.0691 41.0666 14.064C41.0862 14.0538 41.1059 14.0435 41.1255 14.0333C41.1469 14.0299 41.1682 14.0264 41.1896 14.023C41.2075 14.0128 41.2254 14.0026 41.2434 13.9923C41.2665 13.9889 41.2895 13.9855 41.3126 13.9821C41.3331 13.971 41.3536 13.9599 41.3741 13.9488C41.3997 13.9445 41.4254 13.9403 41.451 13.936C41.4689 13.9258 41.4868 13.9155 41.5048 13.9053C41.5287 13.9019 41.5526 13.8985 41.5766 13.8951C42.0074 13.7413 42.4699 13.622 42.9193 13.4805C42.9526 13.4745 42.9859 13.4685 43.0192 13.4626C43.1501 13.4227 43.3026 13.3897 43.4369 13.3525C43.5417 13.3235 43.6282 13.3202 43.7368 13.2962C43.9283 13.2539 44.1436 13.2166 44.3441 13.1785C44.4653 13.1649 44.5867 13.1512 44.708 13.1375L44.7079 13.1375ZM45.5997 9.58537C45.6306 9.58435 45.6586 9.58506 45.6765 9.5956C45.6765 9.60158 45.6765 9.60754 45.6765 9.61352C45.666 9.63429 45.4955 9.74498 45.4639 9.76964C45.3133 9.8867 45.1791 10.0444 45.0641 10.197C44.8356 10.5002 44.6496 10.8481 44.426 11.1542C44.3343 11.2798 44.2351 11.4122 44.1135 11.5073C43.9572 11.6295 43.7825 11.7336 43.6086 11.84C43.5408 11.8815 43.469 11.9059 43.401 11.9475C43.2206 12.0581 43.0254 12.1493 42.8271 12.2418C42.6955 12.3031 42.553 12.3729 42.4222 12.4388C42.4017 12.4448 42.3812 12.4508 42.3607 12.4568C42.267 12.5038 42.1678 12.5391 42.066 12.5847C41.8863 12.6652 41.6912 12.7464 41.5074 12.8227C41.3729 12.8785 41.243 12.9125 41.1076 12.9686C40.9083 13.0511 40.6929 13.1335 40.4901 13.2092C40.4269 13.2328 40.3762 13.2403 40.3133 13.2655C40.2632 13.2855 40.1972 13.3183 40.1467 13.3371C40.0831 13.3608 40.0326 13.3684 39.9699 13.3934C39.9141 13.4158 39.8444 13.4536 39.7854 13.4702C39.6707 13.5024 39.5657 13.5571 39.46 13.5956C39.4298 13.6066 39.3593 13.6415 39.3395 13.6212C39.3651 13.576 39.4146 13.5451 39.4548 13.5137C39.5257 13.4514 39.5966 13.3891 39.6675 13.3269C39.8346 13.176 40.0071 13.0134 40.1518 12.8406C40.2159 12.7741 40.28 12.7075 40.344 12.641C40.4952 12.4687 40.6464 12.2963 40.7976 12.1241C40.8471 12.0712 40.8966 12.0183 40.9462 11.9654C41.091 11.7832 41.262 11.6269 41.4177 11.4561C41.9735 10.8465 42.6742 10.3663 43.4984 10.0255C43.5198 10.0204 43.5411 10.0153 43.5625 10.0102C43.6152 9.99086 43.6821 9.95301 43.7367 9.93598C43.7606 9.9309 43.7846 9.92576 43.8085 9.92064C43.9866 9.84788 44.1783 9.80877 44.3799 9.75432C44.5365 9.71198 44.7182 9.66865 44.8847 9.63657C45.028 9.60898 45.1525 9.61341 45.3024 9.59054C45.4015 9.58884 45.5006 9.58713 45.5997 9.58543L45.5997 9.58537ZM49.8304 7.07226C49.8551 7.07123 49.8685 7.07375 49.8816 7.08251C49.8807 7.08847 49.8799 7.09445 49.879 7.1004C49.8244 7.15244 49.7697 7.20451 49.715 7.25652C49.6138 7.38253 49.5054 7.50544 49.4203 7.64808C49.1351 8.12606 48.9664 8.71659 48.6388 9.1503C48.4642 9.38141 48.1995 9.55188 47.9674 9.7261C47.5953 10.0054 47.2033 10.2833 46.7938 10.522C46.5299 10.6758 46.2563 10.8201 45.9994 10.9852C45.9345 11.0269 45.8655 11.0539 45.797 11.0901C45.7101 11.1361 45.6174 11.1924 45.5331 11.2437C45.4053 11.3213 45.2675 11.3781 45.1436 11.4561C45.1003 11.4833 45.0534 11.4927 45.0103 11.52C44.8788 11.6036 44.7288 11.6688 44.5978 11.7529C44.5552 11.7802 44.5114 11.7923 44.4671 11.8169C44.4073 11.8501 44.3448 11.8935 44.2851 11.9269C44.2624 11.9397 44.1822 11.994 44.1749 11.9525C44.6542 11.447 45.0343 10.8385 45.4305 10.2507C45.5554 10.0655 45.6648 9.87364 45.797 9.69533C46.2133 9.13367 46.6447 8.60908 47.2064 8.1931C47.5872 7.91103 48.0228 7.66284 48.485 7.46631C48.6644 7.39003 48.8512 7.33099 49.0309 7.25644C49.0582 7.25049 49.0855 7.24451 49.1129 7.23853C49.2451 7.19695 49.3951 7.14995 49.5434 7.12081C49.6339 7.10303 49.7579 7.10683 49.8304 7.07218L49.8304 7.07226ZM61.2719 5.17336C61.3027 5.18052 61.3996 5.27028 61.377 5.309C61.3667 5.3266 61.29 5.36006 61.2668 5.37043C61.1927 5.40345 61.1238 5.46351 61.049 5.4958C60.9503 5.53837 60.8528 5.59818 60.7645 5.65449C60.7252 5.67957 60.6857 5.69197 60.6441 5.71335C60.5546 5.75936 60.4612 5.81777 60.375 5.86944C60.1982 5.97554 60.0105 6.06029 59.8369 6.16631C59.7938 6.19262 59.7491 6.20337 59.7062 6.23029C59.4001 6.42263 59.0632 6.57919 58.753 6.76516C58.6854 6.80563 58.6154 6.82919 58.548 6.87008C58.3741 6.9755 58.1927 7.07024 58.0098 7.16695C57.9509 7.19811 57.8874 7.23939 57.8305 7.27444C57.7286 7.33705 57.6186 7.38303 57.5204 7.4459C57.478 7.4731 57.4328 7.48354 57.3897 7.50987C57.282 7.57571 57.1629 7.63402 57.0566 7.7018C56.9674 7.75869 56.8713 7.7989 56.7772 7.84766C56.6901 7.89288 56.5974 7.9498 56.5133 8.00121C56.4716 8.02673 56.4305 8.03819 56.3878 8.06264C56.2253 8.15559 56.0542 8.24868 55.8932 8.34413C55.7999 8.39948 55.7001 8.43415 55.6087 8.49257C55.3543 8.65527 55.071 8.78471 54.8118 8.94041C54.711 9.001 54.6039 9.04751 54.5069 9.10933C54.4443 9.14915 54.3817 9.1652 54.3326 9.21682C54.3326 9.22107 54.3326 9.22534 54.3326 9.22962C54.3343 9.2313 54.336 9.23303 54.3378 9.23471C54.3918 9.24774 54.4599 9.24037 54.5197 9.25005C54.6223 9.26671 54.7108 9.27516 54.8195 9.29357C54.8733 9.30382 54.9272 9.31405 54.981 9.32428C55.0326 9.31175 55.0698 9.24827 55.1091 9.21939C55.1985 9.15353 55.3187 9.10298 55.414 9.04536C55.48 9.00549 55.5479 8.98081 55.6139 8.94044C55.9199 8.7534 56.2481 8.59198 56.5543 8.40556C56.7454 8.28929 56.9482 8.20281 57.1386 8.08567C57.2939 7.99016 57.4625 7.90426 57.6178 7.80928C57.6856 7.76779 57.7586 7.74534 57.8254 7.7018C58.0168 7.57692 58.2281 7.48225 58.4276 7.36398C58.8359 7.12186 59.2679 6.90557 59.6729 6.65765C59.7892 6.58646 59.9128 6.53686 60.0291 6.46572C60.1272 6.40571 60.234 6.35582 60.334 6.29426C60.3679 6.27341 60.409 6.24272 60.4442 6.22515C60.5113 6.19165 60.5792 6.16385 60.6415 6.12277C60.7356 6.06076 60.8382 6.014 60.9388 5.95642C61.0994 5.86449 61.2658 5.76833 61.4257 5.67493C61.5439 5.60586 61.6657 5.55461 61.7819 5.483C61.8789 5.42323 61.9848 5.37491 62.0843 5.31408C62.1307 5.2857 62.1837 5.23193 62.2508 5.22965C62.2821 5.24555 62.3453 5.30902 62.3482 5.34994C62.3246 5.3918 62.27 5.39789 62.2303 5.42414C62.1352 5.48696 62.0266 5.52841 61.9279 5.59049C61.584 5.80683 61.2112 5.98365 60.8542 6.18423C60.3812 6.44999 59.8972 6.7099 59.4269 6.98011C59.2073 7.10633 58.9806 7.20823 58.7632 7.33841C58.5282 7.47924 58.2795 7.61891 58.0381 7.74788C57.7511 7.90114 57.4711 8.06072 57.1898 8.21621C57.0607 8.28763 56.9314 8.3508 56.808 8.42605C56.6663 8.51261 56.5185 8.57912 56.3724 8.65894C56.1029 8.80622 55.8315 8.96562 55.5627 9.1145C55.4628 9.16979 55.3627 9.21685 55.268 9.27573C55.2527 9.2852 55.1627 9.30836 55.1937 9.34739C55.214 9.37304 55.2928 9.36426 55.3321 9.37042C55.4658 9.39146 55.6193 9.38333 55.7626 9.38322C56.1289 9.38299 56.3345 9.28074 56.5518 9.13498C56.5714 9.12643 56.5911 9.11791 56.6107 9.10941C56.7316 9.03182 56.8654 8.9737 56.99 8.897C57.3578 8.67064 57.7439 8.46518 58.1277 8.25978C58.3165 8.15874 58.5025 8.03586 58.6915 7.93477C58.9633 7.78932 59.2289 7.64538 59.4961 7.49201C59.6077 7.42798 59.7224 7.35092 59.8369 7.2924C60.0456 7.18573 60.2402 7.05893 60.4442 6.95202C60.753 6.79026 61.0581 6.62092 61.3539 6.44277C61.4441 6.38845 61.5371 6.35073 61.6281 6.29691C61.9121 6.12878 62.211 5.97258 62.4942 5.80298C62.5597 5.76371 62.6251 5.73869 62.6915 5.70058C62.7113 5.68927 62.7232 5.66622 62.7505 5.6622C62.7854 5.65709 62.8682 5.75847 62.8632 5.77992C62.8536 5.8322 62.7553 5.86137 62.712 5.8823C62.6221 5.92579 62.5268 5.98501 62.4429 6.03842C62.3988 6.06653 62.3511 6.07676 62.3071 6.10493C62.1281 6.21969 61.9275 6.3112 61.746 6.42229C61.7015 6.44448 61.6571 6.46664 61.6127 6.48883C61.4657 6.58328 61.2973 6.64959 61.1489 6.74473C60.9567 6.86793 60.7471 6.9735 60.5416 7.08C60.506 7.09841 60.4654 7.12789 60.4314 7.14908C60.3063 7.2273 60.1697 7.28488 60.047 7.36149C59.9787 7.40419 59.9048 7.42573 59.8369 7.46898C59.6571 7.58355 59.4574 7.68194 59.2731 7.78885C58.8641 8.02626 58.4387 8.23156 58.0355 8.47216C57.9435 8.52698 57.8479 8.56305 57.7561 8.61802C57.47 8.78938 57.166 8.94503 56.8772 9.11195C56.776 9.17045 56.6708 9.21661 56.5748 9.27828C56.4575 9.35374 56.3279 9.40017 56.2084 9.47277C56.1243 9.52386 56.0795 9.60785 56.0059 9.66726C55.8512 9.79235 55.7096 9.93549 55.5447 10.0512C55.1156 10.3522 54.6698 10.646 54.1558 10.8624C53.9191 10.962 53.6668 11.0373 53.4101 11.1157C53.3075 11.1471 53.2175 11.15 53.1103 11.1772C52.4856 11.3354 51.7024 11.321 50.9399 11.3333C50.7477 11.3358 50.5555 11.3384 50.3633 11.341C50.2535 11.3577 50.1391 11.3379 50.0379 11.3538C49.9347 11.3699 49.7963 11.3476 49.7278 11.3998C49.7287 11.4015 49.7295 11.4032 49.7304 11.4049C49.8694 11.4261 50.0136 11.4378 50.1455 11.4714C50.4618 11.5522 50.7718 11.6548 51.1039 11.7197C51.2563 11.7495 51.395 11.7632 51.5703 11.7632C51.6164 11.7632 51.6625 11.7632 51.7087 11.7632C51.7513 11.7598 51.7941 11.7564 51.8368 11.753C51.8758 11.7453 51.9206 11.725 51.9623 11.7325C51.9658 11.7368 51.9692 11.741 51.9726 11.7453C51.9452 11.8005 51.7979 11.9101 51.7445 11.9526C51.5886 12.0768 51.4321 12.2034 51.2576 12.3109C51.1449 12.3804 51.0293 12.4314 50.9143 12.5003C50.5054 12.7453 50.0312 12.928 49.5305 13.0786C49.3403 13.1359 49.1336 13.1666 48.9335 13.2066C48.7755 13.2237 48.6174 13.2407 48.4594 13.2578C48.3894 13.2595 48.3193 13.2612 48.2493 13.2629C48.1615 13.2763 47.9678 13.2795 47.8777 13.2655C47.8376 13.2646 47.7974 13.2638 47.7573 13.2629C47.7034 13.262 47.6496 13.2612 47.5958 13.2603C47.4532 13.2381 47.3067 13.2492 47.1756 13.2271C47.1047 13.2228 47.0338 13.2185 46.9629 13.2142C46.8784 13.2032 46.7938 13.1921 46.7092 13.181C46.6537 13.1776 46.5982 13.1741 46.5427 13.1707C46.4581 13.1596 46.3735 13.1486 46.289 13.1375C46.0848 13.1204 45.8807 13.1033 45.6765 13.0863C45.5604 13.0803 45.4442 13.0743 45.328 13.0684C45.2332 13.0658 45.1384 13.0633 45.0436 13.0607C44.9291 13.0633 44.8147 13.0658 44.7002 13.0684C44.6635 13.07 44.5954 13.0848 44.5747 13.0633C44.5772 13.0599 44.5798 13.0564 44.5824 13.053C44.618 13.0427 44.6371 13.0168 44.6695 13.0044C44.7987 12.9549 44.9204 12.9191 45.0462 12.8636C45.0908 12.8439 45.1492 12.8108 45.1948 12.7945C45.4072 12.7187 45.6132 12.635 45.8123 12.5437C45.904 12.5018 45.9916 12.477 46.0865 12.4414C46.2813 12.3683 46.4861 12.2761 46.681 12.1982C46.7791 12.1591 46.8694 12.1378 46.968 12.0984C47.3501 11.946 47.7625 11.8094 48.1698 11.6864C48.1955 11.6821 48.2211 11.6779 48.2467 11.6736C48.4281 11.6227 48.628 11.5623 48.8156 11.515C48.9029 11.4929 48.9823 11.4942 49.059 11.4612C49.0997 11.4437 49.1449 11.4072 49.1846 11.387C49.2914 11.3327 49.3945 11.2791 49.4947 11.2206C49.6762 11.1147 49.8667 11.0314 50.043 10.9238C50.0868 10.897 50.1319 10.8864 50.1763 10.8598C50.3009 10.7851 50.43 10.718 50.5632 10.6499C50.6802 10.5902 50.8027 10.5188 50.9168 10.4529C50.96 10.4279 51.0003 10.4167 51.0449 10.394C51.28 10.2746 51.5236 10.1477 51.7599 10.0255C51.8981 9.954 52.0374 9.89913 52.1827 9.8387C52.3246 9.77966 52.4752 9.70228 52.6183 9.64164C52.6786 9.61609 52.7288 9.60733 52.79 9.58278C53.035 9.48455 53.2991 9.38199 53.5588 9.29871C53.6756 9.26123 53.8011 9.25338 53.9355 9.22962C53.9856 9.22073 54.0443 9.23017 54.0867 9.21428C54.1259 9.18527 54.1652 9.15628 54.2045 9.12727C54.4113 9.018 54.6084 8.89454 54.8119 8.78689C55.0952 8.63694 55.3752 8.48168 55.6472 8.31859C55.846 8.19937 56.0567 8.10403 56.2494 7.98075C56.2682 7.97309 56.287 7.9654 56.3058 7.95772C56.4253 7.8811 56.5562 7.8229 56.6799 7.74786C57.0116 7.54667 57.3664 7.37172 57.6972 7.16949C57.7639 7.1287 57.8325 7.10489 57.8996 7.06457C58.2321 6.86502 58.5855 6.68778 58.917 6.48621C59.0085 6.43052 59.1059 6.3954 59.1963 6.33778C59.3477 6.24125 59.5243 6.14019 59.6832 6.05625C59.7502 6.02084 59.8167 5.99456 59.8805 5.95388C60.0263 5.861 60.1868 5.7896 60.3366 5.69798C60.6402 5.51235 60.9588 5.34824 61.272 5.17334L61.2719 5.17336ZM59.2578 4.5694C59.2552 4.57278 59.2527 4.57622 59.2501 4.5796C59.2501 4.58131 59.2501 4.58301 59.2501 4.58472C59.251 4.58558 59.2518 4.58642 59.2527 4.58729C59.2536 4.58729 59.2544 4.58729 59.2552 4.58729C59.2604 4.58301 59.2655 4.57876 59.2706 4.57449C59.2655 4.57039 59.2671 4.57118 59.2578 4.5694ZM59.3167 4.52586C59.3077 4.53255 59.3054 4.53108 59.3014 4.54377C59.3057 4.54377 59.3099 4.54377 59.3142 4.54377C59.3185 4.54039 59.3228 4.53693 59.327 4.53354C59.327 4.53097 59.327 4.52843 59.327 4.52586C59.3236 4.52586 59.3202 4.52586 59.3168 4.52586H59.3167ZM59.1758 4.2725C59.1732 4.27591 59.1707 4.27935 59.1681 4.28276C59.1681 4.2836 59.1681 4.28444 59.1681 4.2853C59.1732 4.28444 59.1784 4.2836 59.1835 4.28276C59.1843 4.27935 59.1852 4.27591 59.186 4.2725C59.1827 4.2725 59.1792 4.2725 59.1758 4.2725ZM59.2322 4.23156C59.2305 4.23413 59.2288 4.23665 59.2271 4.23922C59.2271 4.24008 59.2271 4.24095 59.2271 4.24179C59.2305 4.24179 59.2339 4.24179 59.2373 4.24179C59.2399 4.23922 59.2424 4.23667 59.245 4.23413C59.245 4.23326 59.245 4.23243 59.245 4.23156C59.2407 4.23156 59.2364 4.23156 59.2322 4.23156ZM60.5493 0.269965C60.5903 0.269336 60.6783 0.331736 60.6902 0.356969C60.7121 0.404917 60.6352 0.436025 60.6082 0.454228C60.4989 0.527907 60.3964 0.608826 60.2854 0.68198C60.1532 0.76901 60.028 0.874952 59.8984 0.966048C59.5678 1.19847 59.2449 1.43574 58.9118 1.6647C58.744 1.78008 58.5784 1.90704 58.4147 2.02811C58.0286 2.31367 57.6336 2.58316 57.2411 2.85983C56.7431 3.21086 56.2568 3.57944 55.7523 3.92446C55.4211 4.15088 55.104 4.40593 54.7734 4.63335C54.5297 4.80098 54.2972 4.98385 54.0533 5.14774C53.9538 5.21462 53.8586 5.28444 53.7637 5.35505C53.7122 5.39338 53.648 5.42134 53.61 5.47277C53.5684 5.52909 53.5418 5.59104 53.5049 5.65192C53.4584 5.72875 53.4233 5.81271 53.3768 5.89502C53.3558 5.93229 53.3199 5.97977 53.3128 6.02811C53.3162 6.03065 53.3196 6.0332 53.323 6.03577C53.3535 6.04217 53.3991 5.99018 53.4204 5.97434C53.4984 5.91637 53.5778 5.85809 53.6562 5.80287C53.9931 5.56539 54.3235 5.32048 54.6555 5.07862C55.5488 4.42789 56.4509 3.79394 57.341 3.13875C57.7979 2.80249 58.2547 2.45823 58.7196 2.133C59.1367 1.84128 59.5368 1.52521 59.9548 1.23729C59.9981 1.20747 60.1224 1.10278 60.1649 1.094C60.2097 1.08471 60.3233 1.17355 60.3084 1.21169C60.2901 1.24573 60.1908 1.29843 60.1546 1.32175C60.0534 1.38693 59.9591 1.46588 59.8574 1.53416C59.7882 1.58617 59.719 1.63823 59.6498 1.69025C59.3236 1.92731 58.9981 2.16435 58.6633 2.3889C58.5343 2.48359 58.4053 2.57831 58.2763 2.67297C57.9743 2.87596 57.6808 3.09233 57.3897 3.30765C57.0035 3.59324 56.6083 3.86214 56.2161 4.13936C55.6902 4.51109 55.1705 4.89771 54.6453 5.27052C54.3054 5.51172 53.9697 5.75823 53.6305 5.99731C53.5299 6.06819 53.4309 6.13783 53.3332 6.20972C53.2866 6.24408 53.2122 6.27244 53.1795 6.31978C53.1445 6.39913 53.1095 6.47847 53.0745 6.55779C53.0275 6.63651 52.9964 6.72831 52.9463 6.80603C52.9191 6.84831 52.8709 6.88986 52.8669 6.95189C52.8686 6.95278 52.8703 6.9536 52.872 6.95446C52.9472 6.93293 52.9981 6.87438 53.054 6.83163C53.1522 6.7564 53.2554 6.68681 53.3538 6.61408C53.6011 6.43123 53.8554 6.26294 54.102 6.0792C54.225 5.98756 54.3483 5.88474 54.4762 5.80025C54.7981 5.58753 55.0983 5.34399 55.4115 5.12206C56.0575 4.6643 56.6962 4.20132 57.3359 3.73498C57.6461 3.50885 57.9511 3.27176 58.2712 3.05681C58.4017 2.96921 58.5246 2.86313 58.653 2.77275C58.9426 2.56899 59.2287 2.36532 59.514 2.15598C59.6285 2.07205 59.7408 1.98531 59.86 1.9052C59.9074 1.87333 59.9546 1.80527 60.024 1.80028C60.0494 1.8124 60.1336 1.86982 60.1444 1.89243C60.1572 1.9511 60.0582 1.98502 60.024 2.01014C59.8666 2.12566 59.7011 2.23381 59.5448 2.35307C59.2959 2.54303 59.0362 2.71992 58.7786 2.90072C58.3392 3.20918 57.9076 3.53063 57.4666 3.83995C57.0787 4.11203 56.6956 4.39752 56.3109 4.67421C56.0794 4.8408 55.8427 4.99534 55.6139 5.16557C55.4506 5.28715 55.2844 5.41365 55.1168 5.52898C54.7136 5.80636 54.3245 6.10152 53.9252 6.38119C53.424 6.73224 52.9248 7.0859 52.4338 7.44834C52.3763 7.49078 52.2937 7.50804 52.2365 7.55071C52.0356 7.70085 51.8306 7.85178 51.6266 8.00113C51.4223 8.15077 51.1974 8.26482 50.986 8.40806C50.5085 8.7316 49.9718 8.99038 49.4664 9.28329C49.348 9.35193 49.2256 9.40043 49.1077 9.47012C48.9707 9.55104 48.8229 9.62569 48.6874 9.7081C48.6428 9.7353 48.5952 9.74603 48.5516 9.77465C48.4877 9.81661 48.3742 9.89984 48.2928 9.91285C48.292 9.91198 48.2911 9.91115 48.2902 9.91028C48.2902 9.90687 48.2902 9.90346 48.2902 9.90005C48.2996 9.88555 48.309 9.87101 48.3184 9.85653C48.3531 9.81139 48.3985 9.77459 48.4337 9.72856C48.497 9.64604 48.5749 9.57066 48.6387 9.48798C48.7464 9.34855 48.8495 9.20882 48.9513 9.06317C49.1466 8.7838 49.3442 8.49758 49.5331 8.21097C49.6961 7.96354 49.8499 7.71462 50.025 7.47903C50.1463 7.31583 50.2769 7.15992 50.4017 7.00047C50.4675 6.92967 50.5333 6.85885 50.5991 6.78806C50.6936 6.67092 50.8096 6.55989 50.927 6.46562C50.9834 6.41444 51.0398 6.36324 51.0962 6.31207C51.285 6.16461 51.4775 6.01124 51.6855 5.88468C51.8281 5.79794 51.9765 5.71773 52.1212 5.6339C52.2244 5.57407 52.3312 5.53984 52.4415 5.48804C52.6199 5.40421 52.8158 5.32316 53.0053 5.24746C53.03 5.24148 53.0548 5.23553 53.0795 5.22955C53.2359 5.16707 53.4185 5.11151 53.5972 5.07343C53.7404 5.04292 53.9485 5.04725 54.0533 4.97876C54.2258 4.86603 54.3883 4.72822 54.5555 4.60769C54.8686 4.38199 55.1827 4.15935 55.4909 3.9295C55.6224 3.83654 55.754 3.74353 55.8855 3.65055C56.0415 3.53981 56.1915 3.42038 56.3519 3.31271C56.5717 3.16514 56.7763 2.99307 56.9976 2.84441C57.128 2.7568 57.2509 2.65067 57.3794 2.56034C57.7667 2.2881 58.1398 2.00194 58.53 1.73374C59.0081 1.40505 59.4593 1.03558 59.9419 0.710046C60.1483 0.570845 60.3395 0.407985 60.5492 0.269886L60.5493 0.269965ZM59.2783 4.20853C59.3237 4.20444 59.3502 4.15256 59.3808 4.13173C59.413 4.10985 59.4435 4.10212 59.4756 4.08056C59.5038 4.06157 59.5295 4.02823 59.5576 4.0089C59.8521 3.80609 60.1339 3.59145 60.4186 3.37933C61.4311 2.62497 62.4502 1.8828 63.468 1.13494C63.7543 0.924552 64.0322 0.698426 64.329 0.500261C64.4087 0.447041 64.4863 0.383985 64.5647 0.326254C64.591 0.306975 64.6043 0.279277 64.6468 0.27508C64.6759 0.29386 64.7079 0.312169 64.7108 0.356969C64.6757 0.404418 64.6223 0.434241 64.575 0.469573C64.479 0.541416 64.3838 0.615698 64.288 0.689692C63.994 0.916631 63.7004 1.14488 63.4039 1.37043C62.774 1.84962 62.1564 2.34549 61.5205 2.81894C61.2335 3.03258 60.9588 3.26812 60.6697 3.47919C60.4352 3.65044 60.2144 3.8351 59.9779 4.00383C59.8729 4.07869 59.7789 4.17661 59.6729 4.24953C59.6028 4.29782 59.5435 4.34681 59.473 4.39539C59.4619 4.40732 59.4508 4.41929 59.4397 4.43119C59.422 4.44129 59.361 4.48955 59.3628 4.5054C59.4026 4.50002 59.4329 4.45409 59.4602 4.43374C59.492 4.41005 59.5245 4.39993 59.5576 4.37745C59.6032 4.34647 59.6467 4.3034 59.6908 4.26996C59.7799 4.20247 59.8728 4.14673 59.9624 4.08058C60.1436 3.94694 60.3217 3.80368 60.5057 3.67366C60.8784 3.41041 61.2388 3.12989 61.605 2.85985C61.9642 2.59493 62.3262 2.3388 62.6838 2.07163C62.9667 1.86022 63.2459 1.63818 63.5397 1.43949C63.8754 1.21248 64.18 0.936697 64.5211 0.715266C64.6014 0.663148 64.6726 0.596708 64.7543 0.543803C64.7766 0.529271 64.805 0.480589 64.8491 0.505402C64.8727 0.518701 64.9198 0.571186 64.8952 0.607777C64.7577 0.719515 64.6201 0.831306 64.4826 0.943018C64.2811 1.10425 64.0795 1.26551 63.8779 1.42672C63.5699 1.66551 63.2616 1.9026 62.9554 2.14329C62.3922 2.58596 61.8081 3.00572 61.2334 3.43565C61.0439 3.57739 60.8469 3.70361 60.6568 3.84512C60.2431 4.15311 59.8139 4.44127 59.3884 4.73826C58.8396 5.12132 58.2815 5.50346 57.7176 5.86942C57.3647 6.09848 57.0134 6.33124 56.6568 6.5527C56.5288 6.63218 56.4012 6.70336 56.275 6.78557C55.7885 7.10242 55.2805 7.39884 54.7836 7.70434C54.6732 7.77217 54.5609 7.82581 54.4505 7.89372C54.1885 8.05477 53.9201 8.20714 53.6484 8.3595C53.3473 8.52837 53.0507 8.70804 52.7413 8.87135C52.6011 8.94532 52.4584 9.03261 52.321 9.11193C52.2525 9.15151 52.1855 9.17711 52.116 9.2143C51.8685 9.34663 51.613 9.48536 51.3678 9.62375C51.0738 9.78965 50.7578 9.91605 50.4709 10.0895C50.4222 10.1117 50.3735 10.1339 50.3248 10.1561C50.1984 10.2315 50.0598 10.3024 49.9199 10.3608C49.8483 10.3907 49.7745 10.4426 49.7047 10.4759C49.4514 10.597 49.2086 10.7187 48.9513 10.8342C48.9104 10.8526 48.8617 10.8877 48.8206 10.9059C48.5156 11.0409 48.22 11.1958 47.9187 11.3307C47.2103 11.6478 46.5013 11.9684 45.7815 12.2699C45.1477 12.5355 44.4983 12.7678 43.8622 13.0351C43.7972 13.0625 43.74 13.0696 43.6752 13.0966C43.4754 13.1796 43.2564 13.2525 43.055 13.3346C42.953 13.3762 42.8545 13.3982 42.7501 13.4344C42.6156 13.481 42.4664 13.5359 42.3324 13.5879C42.2142 13.6338 42.0883 13.6587 41.9788 13.7107C41.9515 13.7167 41.9241 13.7227 41.8968 13.7287C41.8788 13.7389 41.8609 13.7491 41.8429 13.7594C41.8208 13.7628 41.7985 13.7662 41.7763 13.7696C41.7575 13.7798 41.7387 13.7901 41.72 13.8003C41.6918 13.8054 41.6636 13.8106 41.6354 13.8157C41.6209 13.825 41.6064 13.8344 41.5918 13.8438C41.5654 13.8481 41.5389 13.8523 41.5124 13.8566C41.4953 13.8669 41.4782 13.8771 41.4611 13.8873C41.4372 13.8907 41.4133 13.8942 41.3894 13.8976C41.3714 13.9078 41.3535 13.918 41.3356 13.9283C41.3057 13.9334 41.2758 13.9385 41.2459 13.9436C41.2305 13.953 41.2151 13.9624 41.1997 13.9718C41.1733 13.976 41.1468 13.9803 41.1203 13.9846C41.1007 13.9948 41.081 14.005 41.0614 14.0153C41.0392 14.0187 41.017 14.0221 40.9948 14.0255C40.9734 14.0358 40.9521 14.046 40.9307 14.0562C40.8067 14.0959 40.6963 14.1158 40.5745 14.1586C39.8802 14.4029 39.1378 14.5711 38.4143 14.7856C38.3221 14.813 38.2459 14.8182 38.153 14.8445C37.9661 14.8971 37.7571 14.9453 37.5687 14.998C37.5311 15.004 37.4935 15.0099 37.4559 15.0159C37.283 15.0642 37.1014 15.0958 36.9178 15.1413C36.4124 15.2667 35.8759 15.3676 35.3521 15.4714C35.1148 15.5185 34.8762 15.5479 34.6449 15.5968C34.5979 15.6019 34.5509 15.607 34.5039 15.6122C34.2885 15.6586 34.045 15.6836 33.8249 15.7248C33.7711 15.7299 33.7172 15.735 33.6634 15.7401C33.2789 15.8154 32.8577 15.8315 32.4616 15.8962C32.3847 15.9013 32.3079 15.9065 32.231 15.9116C31.9704 15.9557 31.6804 15.9477 31.411 15.9883C31.3734 15.9892 31.3358 15.9901 31.2982 15.9909C31.1778 16.0011 31.0573 16.0114 30.9369 16.0216C30.7259 16.0293 30.5149 16.037 30.3039 16.0447C30.1776 16.0498 30.0511 16.0549 29.9247 16.06C29.8479 16.0617 29.771 16.0634 29.6941 16.0651C29.4882 16.066 29.2824 16.0668 29.0765 16.0677C28.9262 16.0651 28.7758 16.0626 28.6255 16.06C28.5316 16.0566 28.4376 16.0532 28.3437 16.0498C28.2591 16.0455 28.1745 16.0412 28.09 16.037C28.0234 16.0353 27.9567 16.0336 27.8901 16.0319C27.7467 16.0101 27.599 16.0223 27.4647 16.0011C27.3879 15.9969 27.311 15.9926 27.2341 15.9883C27.1169 15.9704 27.0006 15.9704 26.8907 15.9525C26.8301 15.9491 26.7694 15.9457 26.7088 15.9423C26.6217 15.9304 26.5345 15.9184 26.4474 15.9065C26.391 15.9022 26.3346 15.8979 26.2783 15.8937C26.1331 15.8656 25.9577 15.8474 25.8145 15.822C25.7718 15.8186 25.729 15.8152 25.6863 15.8118C25.4828 15.7715 25.2577 15.7395 25.0585 15.6966C24.9376 15.6706 24.8343 15.6676 24.7151 15.6377C24.1989 15.5086 23.6893 15.4021 23.1956 15.2564C22.8761 15.1622 22.5479 15.0469 22.2475 14.9289C22.0752 14.8612 21.9127 14.8134 21.7452 14.742C20.8775 14.3724 20.0584 13.9504 19.3313 13.4394C18.6887 12.9879 18.0727 12.5134 17.5478 11.9449C17.3887 11.7725 17.2177 11.6105 17.0712 11.4254C17.0107 11.3489 16.9256 11.2745 16.8815 11.1848C16.8824 11.1839 16.8832 11.1831 16.8841 11.1822C16.8875 11.1839 16.891 11.1856 16.8944 11.1873C16.9536 11.2266 16.999 11.2882 17.0481 11.3383C17.1916 11.4791 17.3351 11.6198 17.4786 11.7606C17.6187 11.8843 17.7588 12.008 17.8988 12.1317C18.1504 12.3427 18.4153 12.5413 18.683 12.7356C18.9132 12.9028 19.1594 13.0559 19.403 13.2065C19.4656 13.2452 19.5301 13.2714 19.5926 13.3115C19.8387 13.469 20.1054 13.6065 20.3793 13.7337C20.6026 13.8373 20.8328 13.9603 21.0635 14.0587C21.4272 14.2138 21.8047 14.3488 22.1833 14.4861C22.2535 14.5116 22.3098 14.5206 22.3806 14.5424C22.4919 14.5767 22.6189 14.6283 22.7317 14.6601C22.9356 14.7176 23.1392 14.7711 23.339 14.829C23.3672 14.8333 23.3954 14.8376 23.4235 14.8418C23.5066 14.8625 23.6085 14.8955 23.6926 14.9161C23.7233 14.9203 23.7541 14.9246 23.7849 14.9289C24.2458 15.0467 24.746 15.1178 25.2378 15.2129C25.2788 15.2163 25.3198 15.2197 25.3608 15.2231C25.516 15.2502 25.7009 15.269 25.8579 15.2974C25.9262 15.3025 25.9946 15.3076 26.0629 15.3127C26.2583 15.3457 26.4905 15.3498 26.6907 15.3818C26.7625 15.3852 26.8342 15.3886 26.906 15.392C27.0563 15.404 27.2067 15.4159 27.357 15.4278C27.427 15.4304 27.4971 15.433 27.5671 15.4355C27.6926 15.4389 27.8182 15.4423 27.9438 15.4458C28.0873 15.4509 28.2308 15.456 28.3743 15.4611C28.417 15.4611 28.4597 15.4611 28.5024 15.4611C28.6766 15.4611 28.8509 15.4611 29.0252 15.4611C29.1439 15.4594 29.2626 15.4577 29.3814 15.456C29.4813 15.4526 29.5813 15.4492 29.6812 15.4458C29.7888 15.4423 29.8964 15.4389 30.004 15.4355C30.0587 15.4338 30.1134 15.4321 30.1681 15.4304C30.3073 15.4202 30.4465 15.41 30.5857 15.3997C30.7378 15.3912 30.8898 15.3827 31.0419 15.3741C31.1736 15.3524 31.3208 15.3637 31.4621 15.3408C31.5526 15.3297 31.6432 15.3187 31.7337 15.3076C31.7833 15.305 31.8328 15.3025 31.8824 15.2999C32.1812 15.2503 32.5081 15.2389 32.7997 15.1847C32.9616 15.1547 33.1057 15.1578 33.2661 15.1284C33.6638 15.0556 34.0826 15.012 34.4679 14.9288C34.5081 14.9246 34.5482 14.9203 34.5884 14.916C34.696 14.894 34.8277 14.8687 34.9343 14.8444C34.9762 14.8393 35.018 14.8341 35.0599 14.829C35.3677 14.7584 35.6976 14.7032 36.0003 14.6294C36.0336 14.6251 36.0669 14.6209 36.1003 14.6166C36.4966 14.5189 36.9092 14.4263 37.2995 14.33C37.4698 14.2879 37.6347 14.252 37.7941 14.2046C37.8257 14.1995 37.8573 14.1943 37.8889 14.1892C38.1951 14.0983 38.5081 14.0187 38.8216 13.9359C39.0901 13.8649 39.3701 13.7664 39.6339 13.6902C40.0049 13.583 40.3674 13.4768 40.7204 13.3524C40.7912 13.3274 40.8464 13.3176 40.9177 13.2961C41.0667 13.2512 41.2246 13.1875 41.3713 13.1374C41.4431 13.1129 41.5061 13.1049 41.5763 13.076C41.9025 12.9417 42.2567 12.8441 42.5808 12.7126C42.6055 12.7066 42.6303 12.7006 42.6551 12.6947C43.1537 12.4956 43.6673 12.312 44.1593 12.1137C44.3727 12.0277 44.589 11.9583 44.7896 11.8604C44.8486 11.8316 44.9031 11.8246 44.9639 11.7989C46.3853 11.1995 47.8 10.5859 49.1382 9.89748C49.2376 9.84633 49.3342 9.79726 49.438 9.75671C49.4551 9.74561 49.4722 9.73454 49.4893 9.72345C49.5744 9.6856 49.6558 9.64604 49.7327 9.60061C49.8408 9.53674 49.9597 9.49664 50.0633 9.43169C50.1349 9.38679 50.2137 9.36376 50.2887 9.3242C50.5401 9.19167 50.8022 9.05923 51.0473 8.9173C51.1957 8.83132 51.3499 8.77013 51.4982 8.68441C52.0154 8.38571 52.549 8.10613 53.0614 7.80661C53.1512 7.75412 53.2418 7.71515 53.3305 7.66075C53.6171 7.48467 53.9161 7.32606 54.2042 7.1489C54.5875 6.91325 54.9766 6.67884 55.3574 6.44259C55.5783 6.30554 55.8035 6.18313 56.0185 6.03823C56.2124 5.90758 56.4122 5.78304 56.613 5.65948C56.8689 5.50207 57.1177 5.32379 57.369 5.16046C57.5325 5.05412 57.7014 4.95807 57.8584 4.8431C58.2854 4.5306 58.7385 4.25315 59.1704 3.94739C60.0632 3.31528 60.9582 2.68771 61.8226 2.02546C62.4845 1.51837 63.138 1.00206 63.7957 0.492524C63.9532 0.370503 64.1037 0.238463 64.2621 0.116312C64.2893 0.0953805 64.3912 -0.0123184 64.4287 0.0011636C64.4493 0.00974069 64.5377 0.115263 64.526 0.144456C64.5091 0.177925 64.4604 0.196312 64.4313 0.21866C64.3394 0.289086 64.2472 0.359828 64.1545 0.431068C63.8413 0.671751 63.5275 0.913142 63.2141 1.15529C62.3261 1.84133 61.4398 2.53337 60.5465 3.21288C60.2452 3.44205 59.9484 3.67683 59.6496 3.90642C59.6005 3.94414 59.5449 3.97307 59.4984 4.01391C59.4776 4.03216 59.448 4.07109 59.4267 4.08557C59.3806 4.11683 59.3113 4.15397 59.2781 4.19563C59.2781 4.19987 59.2781 4.20415 59.2781 4.20843L59.2783 4.20853Z" fill="#0B2B70"/>
</svg>
